<svg width="414" height="152" viewBox="0 0 414 152" fill="none" xmlns="http://www.w3.org/2000/svg">
<g clip-path="url(#clip0_2_253)">
<rect width="414" height="152" fill="#0F0F0F"/>
<path d="M11 36.9934L391 36" stroke="white"/>
<path d="M11 54.9934L391 56" stroke="white"/>
<path d="M11 72.9934L391 73" stroke="white"/>
<path d="M11 90.9934L390.5 90.9934" stroke="white"/>
<path d="M11 108.993L391 110" stroke="white"/>
<path d="M138 124L183 124" stroke="white"/>
<g clip-path="url(#clip1_2_253)">
<path d="M38.5294 44.7066C36.758 47.0246 34.7025 48.9582 32.4054 50.4717L28.6445 53.0431C22.8967 57.4217 18.7608 60.9593 16.3456 63.5562C11.9465 68.2794 9.53478 73.0775 9.17109 77.817C8.76518 83.1625 10.5444 88.2362 14.4604 92.9011C18.6126 97.8717 23.8541 100.566 30.0436 100.912C31.4617 100.993 33.0156 100.979 34.3078 100.907L33.8248 97.1748C32.9242 97.2457 31.9693 97.2571 30.9688 97.1999C26.9023 96.972 23.2711 95.5338 20.1686 92.9255C16.9265 90.217 15.4739 87.232 15.7359 83.8026C16.231 77.3058 21.1489 70.874 30.3543 64.6735L34.4664 61.8668C38.0834 59.2171 41.0127 55.8867 43.1776 51.9591C45.3196 48.0603 46.5757 43.8398 46.9148 39.4161C47.1156 36.817 46.6937 33.5897 45.6764 29.8261C44.2798 24.7147 42.292 22.1566 39.5851 22.0037C38.6233 21.9527 37.5702 22.3679 36.2853 23.3396C33.1603 25.7581 30.8891 28.6881 29.5274 32.0347C28.4769 34.5928 27.7792 38.0141 27.4569 42.2025C27.322 43.9458 27.5918 47.1657 28.2347 51.0527L32.0456 48.027C32.0335 47.5901 32.0478 47.1358 32.087 46.6594C32.2878 43.9923 33.0733 41.0963 34.4113 38.0562C36.1159 34.2534 37.7245 33.1036 38.7776 32.81C39.0654 32.7295 39.3464 32.6999 39.6459 32.7162C41.0183 32.7945 42.3856 33.292 42.1516 36.4019C41.9542 39.0386 40.7335 41.8313 38.5294 44.7066Z" fill="white"/>
<path d="M41.9052 99.2527C44.3734 98.3042 46.4818 96.8601 48.186 94.9495C50.3642 92.5262 51.5888 89.6619 51.8345 86.4372C52.1447 82.4781 51.0356 78.8885 48.5523 75.7649C45.8281 72.3433 42.0973 70.477 37.4587 70.2151C36.9278 70.1852 36.3629 70.1874 35.7803 70.2244L34.7875 63.8749L30.6215 66.5017L31.2605 71.0055C28.766 71.8894 26.5952 73.2844 24.7897 75.1625C22.7114 77.3505 21.5544 79.7583 21.358 82.3212C21.1572 84.9834 21.85 87.4218 23.4185 89.5541C24.2351 90.692 25.3606 91.7037 26.6494 92.5303C28.7635 93.8784 31.2011 93.7772 31.5872 93.0448C31.9776 92.3123 30.5293 91.1629 29.3939 89.629C28.7467 88.7607 28.4278 87.7184 28.4278 86.4907C28.4278 83.8857 30.2617 81.6464 32.8734 80.6554L35.3179 96.9846L35.8889 100.773C36.2612 102.573 36.6296 104.365 36.9821 106.136C37.413 108.533 37.5647 110.61 37.4307 112.31C37.2501 114.664 36.393 116.588 34.8801 118.032C33.9175 118.95 32.7928 119.53 31.5212 119.851C33.228 118.388 34.2851 116.368 34.2851 114.134C34.2851 109.675 30.0657 106.056 24.8612 106.056C23.4164 106.056 22.0642 106.356 20.8413 106.853C20.6862 106.911 20.5401 106.997 20.3871 107.065C20.0515 107.222 19.7154 107.379 19.4021 107.569C19.2948 107.638 19.1922 107.717 19.0867 107.792C16.9804 109.201 15.6002 111.344 15.4778 113.786C15.4778 113.79 15.4731 113.794 15.4731 113.798C15.4731 113.799 15.4731 113.801 15.4731 113.803C15.4675 113.918 15.4343 114.021 15.4343 114.134C15.4343 114.23 15.4632 114.316 15.4679 114.408C15.4632 117.024 16.7318 119.275 19.2767 121.1C21.6829 122.823 24.5669 123.788 27.8482 123.972C29.7127 124.075 31.5131 123.892 33.1944 123.423C34.5686 123.039 35.8984 122.456 37.1368 121.692C40.1359 119.837 41.769 117.414 41.9939 114.478C42.1658 112.239 42.0344 109.59 41.5902 106.57L40.3673 99.7635L37.2837 80.2255C40.724 80.7913 43.328 83.3808 43.328 86.4926C43.328 88.7035 42.4933 92.1919 40.936 94.0184L41.9052 99.2527Z" fill="white"/>
</g>
<path d="M89.3219 40.1905C89.89 38.7217 89.3749 36.9684 88.1628 36.2799C86.9507 35.5914 85.5038 36.2157 84.9356 37.6844L75.2312 62.6623C74.8752 63.5711 74.9358 64.636 75.3752 65.4897C75.8146 66.3434 76.5949 66.8483 77.4282 66.8483H94.3975V74.192C94.3975 75.8168 95.4808 77.1295 96.8217 77.1295C98.1626 77.1295 99.2459 75.8168 99.2459 74.192V66.8483H101.67C103.011 66.8483 104.094 65.5356 104.094 63.9108C104.094 62.286 103.011 60.9733 101.67 60.9733H99.2459V47.7545C99.2459 46.1297 98.1626 44.817 96.8217 44.817C95.4808 44.817 94.3975 46.1297 94.3975 47.7545V60.9733H81.2463L89.3219 40.1905Z" fill="white"/>
<path d="M158.23 118.771C155.735 118.771 150.602 117.509 149.037 120.012C147.616 122.286 144.196 122.715 146.027 126.01C147.364 128.417 148.696 130.28 151.611 131.089C154.591 131.917 158.545 133.861 161.747 132.629C164.675 131.503 168.316 132.013 170.411 129.32C171.512 127.904 171.468 125.131 171.468 123.321C171.468 120.855 169.047 120.304 166.895 120.035C165.1 119.811 162.992 119.667 161.218 119.598C160.015 119.552 158.994 119.185 157.817 119.185" stroke="white" stroke-width="3" stroke-linecap="round"/>
<path d="M89.3219 74.1905C89.89 72.7217 89.3749 70.9684 88.1628 70.2799C86.9507 69.5914 85.5038 70.2157 84.9356 71.6844L75.2312 96.6623C74.8752 97.5711 74.9358 98.636 75.3752 99.4897C75.8146 100.343 76.5949 100.848 77.4282 100.848H94.3975V108.192C94.3975 109.817 95.4808 111.13 96.8217 111.13C98.1626 111.13 99.2459 109.817 99.2459 108.192V100.848H101.67C103.011 100.848 104.094 99.5356 104.094 97.9108C104.094 96.286 103.011 94.9733 101.67 94.9733H99.2459V81.7545C99.2459 80.1297 98.1626 78.817 96.8217 78.817C95.4808 78.817 94.3975 80.1297 94.3975 81.7545V94.9733H81.2463L89.3219 74.1905Z" fill="white"/>
<path d="M157.247 102.285C155.318 102.285 148.746 104.63 148.266 106.792C147.386 110.748 150.46 111.451 152.806 113.436C155.934 116.083 159.195 114.563 162.322 113.67C162.749 113.548 164.36 110.892 164.492 110.431C164.944 108.848 165.211 106.671 165.961 105.022C168.339 99.7907 166.555 93.1256 167.597 87.3938C168.604 81.8512 168.064 75.9525 168.064 70.2995C168.064 65.385 168.665 59.9858 168.665 55.4087V50M156.646 108.294C156.646 107.441 156.652 108.861 156.646 109.029C156.632 109.372 156.558 109.686 156.439 109.977M156.439 109.977C156.078 110.859 155.299 111.526 154.542 112.167C152.423 113.961 150.001 113.017 148.232 111.299C144.115 107.3 145.969 104.087 151.537 104.087C153.713 104.087 161.453 103.554 161.453 107.393C161.453 111.227 158.886 111.352 156.439 109.977ZM156.439 109.977C155.667 109.542 154.906 108.958 154.242 108.294M150.636 111.9H155.444M156.646 111.9C153.718 111.9 152.355 109.595 151.103 107.092C150.883 106.651 150.752 106.274 150.697 105.953M150.697 105.953C150.381 104.105 152.572 104.087 154.542 104.087C154.625 104.087 154.715 104.09 154.811 104.096M150.697 105.953C149.986 106.377 149.666 107.153 150.068 108.561C150.441 109.864 153.662 111.842 154.843 112.367C156.44 113.077 158.622 112.323 159.984 111.933C162.572 111.194 162.655 111.105 162.655 108.294C162.655 107.189 161.524 106.904 160.238 106.888M150.697 105.953C152.363 104.959 156.175 105.899 157.848 105.156C158 105.088 158.149 105.028 158.296 104.974M154.811 104.096C155.537 104.138 156.61 104.338 157.613 104.697M154.811 104.096C154.742 103.936 154.831 103.737 155.143 103.486C156.314 102.55 158.108 102.842 159.653 102.881M154.811 104.096C155.002 104.53 156.373 104.664 157.613 104.697M157.613 104.697C157.846 104.781 158.076 104.873 158.296 104.974M157.613 104.697C158.44 104.72 159.209 104.698 159.527 104.69M158.296 104.974C159.259 105.415 160.047 106.021 160.218 106.792C160.225 106.825 160.232 106.857 160.238 106.888M158.296 104.974C158.726 104.819 159.134 104.724 159.527 104.69M160.238 106.888C160.763 109.777 154.802 107.228 157.247 107.092C157.965 107.052 159.156 106.875 160.238 106.888ZM159.527 104.69C160.291 104.625 160.999 104.792 161.694 105.19M159.527 104.69C159.583 104.689 159.625 104.688 159.651 104.688C160.305 104.688 161.051 105.018 161.694 105.19M161.694 105.19C162.016 105.374 162.335 105.607 162.655 105.89C162.954 106.154 162.913 105.796 162.646 105.245M161.694 105.19C162.055 105.286 162.384 105.333 162.646 105.245M162.646 105.245C162.201 104.33 161.13 102.885 159.951 102.885C159.853 102.885 159.753 102.884 159.653 102.881M162.646 105.245C163.019 105.119 163.256 104.716 163.256 103.787C163.256 102.057 160.287 101.627 159.653 102.881M159.653 102.881L159.651 102.885" stroke="white" stroke-width="3" stroke-linecap="round"/>
<path d="M157.247 82.2845C155.318 82.2845 148.746 84.63 148.266 86.7918C147.386 90.7478 150.46 91.4506 152.806 93.4359C155.934 96.0827 159.195 94.5628 162.322 93.6696C162.749 93.5475 164.36 90.8925 164.492 90.431C164.944 88.8484 165.211 86.671 165.961 85.0223C168.339 79.7907 166.555 73.1256 167.597 67.3938C168.604 61.8512 168.064 55.9525 168.064 50.2995C168.064 45.385 168.665 39.9858 168.665 35.4087V30M156.646 88.2942C156.646 87.4413 156.652 88.8605 156.646 89.0287C156.632 89.3724 156.558 89.6861 156.439 89.9766M156.439 89.9766C156.078 90.8587 155.299 91.5265 154.542 92.1671C152.423 93.9605 150.001 93.017 148.232 91.2991C144.115 87.2996 145.969 84.0874 151.537 84.0874C153.713 84.0874 161.453 83.5544 161.453 87.3928C161.453 91.2272 158.886 91.3521 156.439 89.9766ZM156.439 89.9766C155.667 89.5423 154.906 88.9583 154.242 88.2942M150.636 91.9H155.444M156.646 91.9C153.718 91.9 152.355 89.5954 151.103 87.0923C150.883 86.6509 150.752 86.2743 150.697 85.9531M150.697 85.9531C150.381 84.1049 152.572 84.0874 154.542 84.0874C154.625 84.0874 154.715 84.0902 154.811 84.0958M150.697 85.9531C149.986 86.377 149.666 87.1528 150.068 88.5613C150.441 89.8637 153.662 91.8424 154.843 92.3675C156.44 93.0772 158.622 92.3226 159.984 91.9334C162.572 91.1941 162.655 91.1054 162.655 88.2942C162.655 87.1889 161.524 86.904 160.238 86.8883M150.697 85.9531C152.363 84.9594 156.175 85.8994 157.848 85.1558C158 85.0882 158.149 85.0277 158.296 84.9744M154.811 84.0958C155.537 84.1377 156.61 84.3381 157.613 84.6974M154.811 84.0958C154.742 83.9364 154.831 83.7366 155.143 83.4864C156.314 82.5501 158.108 82.8422 159.653 82.8814M154.811 84.0958C155.002 84.5303 156.373 84.6639 157.613 84.6974M157.613 84.6974C157.846 84.7811 158.076 84.8735 158.296 84.9744M157.613 84.6974C158.44 84.7198 159.209 84.6976 159.527 84.6904M158.296 84.9744C159.259 85.4154 160.047 86.021 160.218 86.7918C160.225 86.8246 160.232 86.8568 160.238 86.8883M158.296 84.9744C158.726 84.8186 159.134 84.7239 159.527 84.6904M160.238 86.8883C160.763 89.7775 154.802 87.2281 157.247 87.0923C157.965 87.0523 159.156 86.8751 160.238 86.8883ZM159.527 84.6904C160.291 84.6253 160.999 84.7916 161.694 85.1897M159.527 84.6904C159.583 84.6892 159.625 84.6884 159.651 84.6884C160.305 84.6884 161.051 85.0176 161.694 85.1897M161.694 85.1897C162.016 85.3737 162.335 85.6073 162.655 85.8903C162.954 86.1541 162.913 85.7955 162.646 85.245M161.694 85.1897C162.055 85.2864 162.384 85.3335 162.646 85.245M162.646 85.245C162.201 84.3303 161.13 82.8855 159.951 82.8855C159.853 82.8855 159.753 82.884 159.653 82.8814M162.646 85.245C163.019 85.1188 163.256 84.7162 163.256 83.7869C163.256 82.0567 160.287 81.6272 159.653 82.8814M159.653 82.8814L159.651 82.8855" stroke="white" stroke-width="3" stroke-linecap="round"/>
<path d="M218.247 93.2845C216.318 93.2845 209.746 95.63 209.266 97.7918C208.386 101.748 211.46 102.451 213.806 104.436C216.934 107.083 220.195 105.563 223.322 104.67C223.749 104.548 225.36 101.892 225.492 101.431C225.944 99.8484 226.211 97.671 226.961 96.0223C229.339 90.7907 227.555 84.1256 228.597 78.3938C229.604 72.8512 229.064 66.9525 229.064 61.2995C229.064 56.385 229.665 50.9858 229.665 46.4087V41M217.646 99.2942C217.646 98.4413 217.652 99.8605 217.646 100.029C217.632 100.372 217.558 100.686 217.439 100.977M217.439 100.977C217.078 101.859 216.299 102.526 215.542 103.167C213.423 104.961 211.001 104.017 209.232 102.299C205.115 98.2996 206.969 95.0874 212.537 95.0874C214.713 95.0874 222.453 94.5544 222.453 98.3928C222.453 102.227 219.886 102.352 217.439 100.977ZM217.439 100.977C216.667 100.542 215.906 99.9583 215.242 99.2942M211.636 102.9H216.444M217.646 102.9C214.718 102.9 213.355 100.595 212.103 98.0923C211.883 97.6509 211.752 97.2743 211.697 96.9531M211.697 96.9531C211.381 95.1049 213.572 95.0874 215.542 95.0874C215.625 95.0874 215.715 95.0902 215.811 95.0958M211.697 96.9531C210.986 97.377 210.666 98.1528 211.068 99.5613C211.441 100.864 214.662 102.842 215.843 103.367C217.44 104.077 219.622 103.323 220.984 102.933C223.572 102.194 223.655 102.105 223.655 99.2942C223.655 98.1889 222.524 97.904 221.238 97.8883M211.697 96.9531C213.363 95.9594 217.175 96.8994 218.848 96.1558C219 96.0882 219.149 96.0277 219.296 95.9744M215.811 95.0958C216.537 95.1377 217.61 95.3381 218.613 95.6974M215.811 95.0958C215.742 94.9364 215.831 94.7366 216.143 94.4864C217.314 93.5501 219.108 93.8422 220.653 93.8814M215.811 95.0958C216.002 95.5303 217.373 95.6639 218.613 95.6974M218.613 95.6974C218.846 95.7811 219.076 95.8735 219.296 95.9744M218.613 95.6974C219.44 95.7198 220.209 95.6976 220.527 95.6904M219.296 95.9744C220.259 96.4154 221.047 97.021 221.218 97.7918C221.225 97.8246 221.232 97.8568 221.238 97.8883M219.296 95.9744C219.726 95.8186 220.134 95.7239 220.527 95.6904M221.238 97.8883C221.763 100.777 215.802 98.2281 218.247 98.0923C218.965 98.0523 220.156 97.8751 221.238 97.8883ZM220.527 95.6904C221.291 95.6253 221.999 95.7916 222.694 96.1897M220.527 95.6904C220.583 95.6892 220.625 95.6884 220.651 95.6884C221.305 95.6884 222.051 96.0176 222.694 96.1897M222.694 96.1897C223.016 96.3737 223.335 96.6073 223.655 96.8903C223.954 97.1541 223.913 96.7955 223.646 96.245M222.694 96.1897C223.055 96.2864 223.384 96.3335 223.646 96.245M223.646 96.245C223.201 95.3303 222.13 93.8855 220.951 93.8855C220.853 93.8855 220.753 93.884 220.653 93.8814M223.646 96.245C224.019 96.1188 224.256 95.7162 224.256 94.7869C224.256 93.0567 221.287 92.6272 220.653 93.8814M220.653 93.8814L220.651 93.8855" stroke="white" stroke-width="3" stroke-linecap="round"/>
<path d="M218.247 76.2845C216.318 76.2845 209.746 78.63 209.266 80.7918C208.386 84.7478 211.46 85.4506 213.806 87.4359C216.934 90.0827 220.195 88.5628 223.322 87.6696C223.749 87.5475 225.36 84.8925 225.492 84.431C225.944 82.8484 226.211 80.671 226.961 79.0223C229.339 73.7907 227.555 67.1256 228.597 61.3938C229.604 55.8512 229.064 49.9525 229.064 44.2995C229.064 39.385 229.665 33.9858 229.665 29.4087V24M217.646 82.2942C217.646 81.4413 217.652 82.8605 217.646 83.0287C217.632 83.3724 217.558 83.6861 217.439 83.9766M217.439 83.9766C217.078 84.8587 216.299 85.5265 215.542 86.1671C213.423 87.9605 211.001 87.017 209.232 85.2991C205.115 81.2996 206.969 78.0874 212.537 78.0874C214.713 78.0874 222.453 77.5544 222.453 81.3928C222.453 85.2272 219.886 85.3521 217.439 83.9766ZM217.439 83.9766C216.667 83.5423 215.906 82.9583 215.242 82.2942M211.636 85.9H216.444M217.646 85.9C214.718 85.9 213.355 83.5954 212.103 81.0923C211.883 80.6509 211.752 80.2743 211.697 79.9531M211.697 79.9531C211.381 78.1049 213.572 78.0874 215.542 78.0874C215.625 78.0874 215.715 78.0902 215.811 78.0958M211.697 79.9531C210.986 80.377 210.666 81.1528 211.068 82.5613C211.441 83.8637 214.662 85.8424 215.843 86.3675C217.44 87.0772 219.622 86.3226 220.984 85.9334C223.572 85.1941 223.655 85.1054 223.655 82.2942C223.655 81.1889 222.524 80.904 221.238 80.8883M211.697 79.9531C213.363 78.9594 217.175 79.8994 218.848 79.1558C219 79.0882 219.149 79.0277 219.296 78.9744M215.811 78.0958C216.537 78.1377 217.61 78.3381 218.613 78.6974M215.811 78.0958C215.742 77.9364 215.831 77.7366 216.143 77.4864C217.314 76.5501 219.108 76.8422 220.653 76.8814M215.811 78.0958C216.002 78.5303 217.373 78.6639 218.613 78.6974M218.613 78.6974C218.846 78.7811 219.076 78.8735 219.296 78.9744M218.613 78.6974C219.44 78.7198 220.209 78.6976 220.527 78.6904M219.296 78.9744C220.259 79.4154 221.047 80.021 221.218 80.7918C221.225 80.8246 221.232 80.8568 221.238 80.8883M219.296 78.9744C219.726 78.8186 220.134 78.7239 220.527 78.6904M221.238 80.8883C221.763 83.7775 215.802 81.2281 218.247 81.0923C218.965 81.0523 220.156 80.8751 221.238 80.8883ZM220.527 78.6904C221.291 78.6253 221.999 78.7916 222.694 79.1897M220.527 78.6904C220.583 78.6892 220.625 78.6884 220.651 78.6884C221.305 78.6884 222.051 79.0176 222.694 79.1897M222.694 79.1897C223.016 79.3737 223.335 79.6073 223.655 79.8903C223.954 80.1541 223.913 79.7955 223.646 79.245M222.694 79.1897C223.055 79.2864 223.384 79.3335 223.646 79.245M223.646 79.245C223.201 78.3303 222.13 76.8855 220.951 76.8855C220.853 76.8855 220.753 76.884 220.653 76.8814M223.646 79.245C224.019 79.1188 224.256 78.7162 224.256 77.7869C224.256 76.0567 221.287 75.6272 220.653 76.8814M220.653 76.8814L220.651 76.8855" stroke="white" stroke-width="3" stroke-linecap="round"/>
<path d="M276.247 109.285C274.318 109.285 267.746 111.63 267.266 113.792C266.386 117.748 269.46 118.451 271.806 120.436C274.934 123.083 278.195 121.563 281.322 120.67C281.749 120.548 283.36 117.892 283.492 117.431C283.944 115.848 284.211 113.671 284.961 112.022C287.339 106.791 285.555 100.126 286.597 94.3938C287.604 88.8512 287.064 82.9525 287.064 77.2995C287.064 72.385 287.665 66.9858 287.665 62.4087V57M275.646 115.294C275.646 114.441 275.652 115.861 275.646 116.029C275.632 116.372 275.558 116.686 275.439 116.977M275.439 116.977C275.078 117.859 274.299 118.526 273.542 119.167C271.423 120.961 269.001 120.017 267.232 118.299C263.115 114.3 264.969 111.087 270.537 111.087C272.713 111.087 280.453 110.554 280.453 114.393C280.453 118.227 277.886 118.352 275.439 116.977ZM275.439 116.977C274.667 116.542 273.906 115.958 273.242 115.294M269.636 118.9H274.444M275.646 118.9C272.718 118.9 271.355 116.595 270.103 114.092C269.883 113.651 269.752 113.274 269.697 112.953M269.697 112.953C269.381 111.105 271.572 111.087 273.542 111.087C273.625 111.087 273.715 111.09 273.811 111.096M269.697 112.953C268.986 113.377 268.666 114.153 269.068 115.561C269.441 116.864 272.662 118.842 273.843 119.367C275.44 120.077 277.622 119.323 278.984 118.933C281.572 118.194 281.655 118.105 281.655 115.294C281.655 114.189 280.524 113.904 279.238 113.888M269.697 112.953C271.363 111.959 275.175 112.899 276.848 112.156C277 112.088 277.149 112.028 277.296 111.974M273.811 111.096C274.537 111.138 275.61 111.338 276.613 111.697M273.811 111.096C273.742 110.936 273.831 110.737 274.143 110.486C275.314 109.55 277.108 109.842 278.653 109.881M273.811 111.096C274.002 111.53 275.373 111.664 276.613 111.697M276.613 111.697C276.846 111.781 277.076 111.873 277.296 111.974M276.613 111.697C277.44 111.72 278.209 111.698 278.527 111.69M277.296 111.974C278.259 112.415 279.047 113.021 279.218 113.792C279.225 113.825 279.232 113.857 279.238 113.888M277.296 111.974C277.726 111.819 278.134 111.724 278.527 111.69M279.238 113.888C279.763 116.777 273.802 114.228 276.247 114.092C276.965 114.052 278.156 113.875 279.238 113.888ZM278.527 111.69C279.291 111.625 279.999 111.792 280.694 112.19M278.527 111.69C278.583 111.689 278.625 111.688 278.651 111.688C279.305 111.688 280.051 112.018 280.694 112.19M280.694 112.19C281.016 112.374 281.335 112.607 281.655 112.89C281.954 113.154 281.913 112.796 281.646 112.245M280.694 112.19C281.055 112.286 281.384 112.333 281.646 112.245M281.646 112.245C281.201 111.33 280.13 109.885 278.951 109.885C278.853 109.885 278.753 109.884 278.653 109.881M281.646 112.245C282.019 112.119 282.256 111.716 282.256 110.787C282.256 109.057 279.287 108.627 278.653 109.881M278.653 109.881L278.651 109.885" stroke="white" stroke-width="3" stroke-linecap="round"/>
<path d="M342.174 58C341.247 58 340.314 58.0484 339.406 58.1621M339.406 58.1621C335.094 58.7018 331.336 60.7118 331.336 65.9865C331.336 73.0087 337.558 72.8321 343.315 72.8321C346.285 72.8321 349.59 73.4684 349.59 69.4093C349.59 67.5705 351.434 63.6967 349.464 62.12C346.602 59.8308 343.049 58.4977 339.406 58.1621ZM339.406 58.1621C337.375 57.975 335.315 58.0981 333.332 58.5388C327.874 59.7517 330.765 68.9946 330.765 72.5469C330.765 75.4176 331.906 78.1034 331.906 81.1039C331.906 84.4218 331.336 87.5704 331.336 90.8018C331.336 102.608 331.906 114.171 331.906 125.885M338.752 64.8456C338.507 65.0416 338.015 65.3157 337.439 65.5597M337.439 65.5597C336.328 66.0299 334.902 66.3881 334.315 65.8598C332.895 64.5819 335.493 64.3288 335.899 64.1484C337.22 63.5614 339.982 63.0909 341.109 64.038M337.439 65.5597C337.287 65.988 337.214 66.3693 337.208 66.7086M337.439 65.5597C337.488 65.4217 337.545 65.2788 337.611 65.1308C337.87 64.5483 339.501 64.156 341.109 64.038M341.109 64.038C341.337 64.2293 341.498 64.4785 341.567 64.7963M341.109 64.038C342.501 63.9358 343.876 64.039 344.329 64.4019C345.067 64.9922 345.469 65.5755 345.613 66.1254M341.567 64.7963C341.591 64.9095 341.604 65.0314 341.604 65.1625C341.604 66.7959 341.194 68.162 340.386 69.2271M341.567 64.7963C339.547 64.6402 337.665 65.0565 337.611 65.9865C337.597 66.2189 337.599 66.4383 337.616 66.6453M341.567 64.7963C343.073 64.9128 344.655 65.3477 345.613 66.1254M340.386 69.2271C340.327 69.3048 340.266 69.381 340.203 69.4555M340.386 69.2271C341.043 69.3297 341.749 69.3783 342.448 69.3979M340.386 69.2271C339.724 69.1237 339.111 68.9655 338.603 68.7265M340.203 69.4555C339.344 70.4678 338.096 71.1818 336.47 71.5644C336.399 71.581 336.33 71.5968 336.261 71.6118M340.203 69.4555C340.918 69.5926 341.702 69.5615 342.448 69.3979M340.203 69.4555C339.599 69.3397 339.044 69.1039 338.603 68.7265M336.261 71.6118C332.092 72.5236 331.906 70.3958 331.906 66.8105C331.906 63.2263 331.735 62.6398 334.758 61.296C336.922 60.3346 340.075 60.8523 342.46 60.8523C346.122 60.8523 344.989 62.3738 346.865 64.7188C348.333 66.5534 347.689 67.8939 346.356 68.6612M336.261 71.6118C338.99 72.2672 343.063 72.3594 344.456 71.1207C345.497 70.1953 346.095 69.3767 346.356 68.6612M336.261 71.6118C335.389 71.4022 334.654 71.1351 334.188 70.8355C330.894 68.718 334.477 67.1803 337.208 66.7086M346.356 68.6612C345.501 69.153 344.363 69.4093 343.315 69.4093C343.03 69.4093 342.74 69.4061 342.448 69.3979M346.356 68.6612C346.746 67.5884 346.379 66.7473 345.613 66.1254M342.448 69.3979C344.362 68.9783 346.023 67.6863 345.613 66.1254M338.603 68.7265C337.748 68.324 337.193 67.6925 337.208 66.7086M338.603 68.7265C338.06 68.2613 337.69 67.581 337.616 66.6453M337.208 66.7086C337.347 66.6848 337.483 66.6636 337.616 66.6453M337.616 66.6453C338.037 66.5871 338.426 66.557 338.752 66.557" stroke="white" stroke-width="3" stroke-linecap="round"/>
</g>
<defs>
<clipPath id="clip0_2_253">
<rect width="414" height="152" fill="white"/>
</clipPath>
<clipPath id="clip1_2_253">
<rect width="119" height="102" fill="white" transform="translate(-29 22)"/>
</clipPath>
</defs>
</svg>
