<svg width="414" height="152" viewBox="0 0 414 152" fill="none" xmlns="http://www.w3.org/2000/svg">
<g clip-path="url(#clip0_2_239)">
<rect width="414" height="152" fill="#0F0F0F"/>
<path d="M11 36.9934L391 36" stroke="white"/>
<path d="M11 54.9934L391 56" stroke="white"/>
<path d="M11 72.9934L391 73" stroke="white"/>
<path d="M11 90.9934L390.5 90.9934" stroke="white"/>
<path d="M11 108.993L391 110" stroke="white"/>
<path d="M138 124L183 124" stroke="white"/>
<g clip-path="url(#clip1_2_239)">
<path d="M38.5294 44.7066C36.758 47.0246 34.7025 48.9582 32.4054 50.4717L28.6445 53.0431C22.8967 57.4217 18.7608 60.9593 16.3456 63.5562C11.9465 68.2794 9.53478 73.0775 9.17109 77.817C8.76518 83.1625 10.5444 88.2362 14.4604 92.9011C18.6126 97.8717 23.8541 100.566 30.0436 100.912C31.4617 100.993 33.0156 100.979 34.3078 100.907L33.8248 97.1748C32.9242 97.2457 31.9693 97.2571 30.9688 97.1999C26.9023 96.972 23.2711 95.5338 20.1686 92.9255C16.9265 90.217 15.4739 87.232 15.7359 83.8026C16.231 77.3058 21.1489 70.874 30.3543 64.6735L34.4664 61.8668C38.0834 59.2171 41.0127 55.8867 43.1776 51.9591C45.3196 48.0603 46.5757 43.8398 46.9148 39.4161C47.1156 36.817 46.6937 33.5897 45.6764 29.8261C44.2798 24.7147 42.292 22.1566 39.5851 22.0037C38.6233 21.9527 37.5702 22.3679 36.2853 23.3396C33.1603 25.7581 30.8891 28.6881 29.5274 32.0347C28.4769 34.5928 27.7792 38.0141 27.4569 42.2025C27.322 43.9458 27.5918 47.1657 28.2347 51.0527L32.0456 48.027C32.0335 47.5901 32.0478 47.1358 32.087 46.6594C32.2878 43.9923 33.0733 41.0963 34.4113 38.0562C36.1159 34.2534 37.7245 33.1036 38.7776 32.81C39.0654 32.7295 39.3464 32.6999 39.6459 32.7162C41.0183 32.7945 42.3856 33.292 42.1516 36.4019C41.9542 39.0386 40.7335 41.8313 38.5294 44.7066Z" fill="white"/>
<path d="M41.9052 99.2527C44.3734 98.3042 46.4818 96.8601 48.186 94.9495C50.3642 92.5262 51.5888 89.6619 51.8345 86.4372C52.1447 82.4781 51.0356 78.8885 48.5523 75.7649C45.8281 72.3433 42.0973 70.477 37.4587 70.2151C36.9278 70.1852 36.3629 70.1874 35.7803 70.2244L34.7875 63.8749L30.6215 66.5017L31.2605 71.0055C28.766 71.8894 26.5952 73.2844 24.7897 75.1625C22.7114 77.3505 21.5544 79.7583 21.358 82.3212C21.1572 84.9834 21.85 87.4218 23.4185 89.5541C24.2351 90.692 25.3606 91.7037 26.6494 92.5303C28.7635 93.8784 31.2011 93.7772 31.5872 93.0448C31.9776 92.3123 30.5293 91.1629 29.3939 89.629C28.7467 88.7607 28.4278 87.7184 28.4278 86.4907C28.4278 83.8857 30.2617 81.6464 32.8734 80.6554L35.3179 96.9846L35.8889 100.773C36.2612 102.573 36.6296 104.365 36.9821 106.136C37.413 108.533 37.5647 110.61 37.4307 112.31C37.2501 114.664 36.393 116.588 34.8801 118.032C33.9175 118.95 32.7928 119.53 31.5212 119.851C33.228 118.388 34.2851 116.368 34.2851 114.134C34.2851 109.675 30.0657 106.056 24.8612 106.056C23.4164 106.056 22.0642 106.356 20.8413 106.853C20.6862 106.911 20.5401 106.997 20.3871 107.065C20.0515 107.222 19.7154 107.379 19.4021 107.569C19.2948 107.638 19.1922 107.717 19.0867 107.792C16.9804 109.201 15.6002 111.344 15.4778 113.786C15.4778 113.79 15.4731 113.794 15.4731 113.798C15.4731 113.799 15.4731 113.801 15.4731 113.803C15.4675 113.918 15.4343 114.021 15.4343 114.134C15.4343 114.23 15.4632 114.316 15.4679 114.408C15.4632 117.024 16.7318 119.275 19.2767 121.1C21.6829 122.823 24.5669 123.788 27.8482 123.972C29.7127 124.075 31.5131 123.892 33.1944 123.423C34.5686 123.039 35.8984 122.456 37.1368 121.692C40.1359 119.837 41.769 117.414 41.9939 114.478C42.1658 112.239 42.0344 109.59 41.5902 106.57L40.3673 99.7635L37.2837 80.2255C40.724 80.7913 43.328 83.3808 43.328 86.4926C43.328 88.7035 42.4933 92.1919 40.936 94.0184L41.9052 99.2527Z" fill="white"/>
</g>
<path d="M201.247 74.2845C199.318 74.2845 192.746 76.63 192.266 78.7918C191.386 82.7478 194.46 83.4506 196.806 85.4359C199.934 88.0827 203.195 86.5628 206.322 85.6696C206.749 85.5475 208.36 82.8925 208.492 82.431C208.944 80.8484 209.211 78.671 209.961 77.0223C212.339 71.7907 210.555 65.1256 211.597 59.3938C212.604 53.8512 212.064 47.9525 212.064 42.2995C212.064 37.385 212.665 31.9858 212.665 27.4087V22M200.646 80.2942C200.646 79.4413 200.652 80.8605 200.646 81.0287C200.632 81.3724 200.558 81.6861 200.439 81.9766M200.439 81.9766C200.078 82.8587 199.299 83.5265 198.542 84.1671C196.423 85.9605 194.001 85.017 192.232 83.2991C188.115 79.2996 189.969 76.0874 195.537 76.0874C197.713 76.0874 205.453 75.5544 205.453 79.3928C205.453 83.2272 202.886 83.3521 200.439 81.9766ZM200.439 81.9766C199.667 81.5423 198.906 80.9583 198.242 80.2942M194.636 83.9H199.444M200.646 83.9C197.718 83.9 196.355 81.5954 195.103 79.0923C194.883 78.6509 194.752 78.2743 194.697 77.9531M194.697 77.9531C194.381 76.1049 196.572 76.0874 198.542 76.0874C198.625 76.0874 198.715 76.0902 198.811 76.0958M194.697 77.9531C193.986 78.377 193.666 79.1528 194.068 80.5613C194.441 81.8637 197.662 83.8424 198.843 84.3675C200.44 85.0772 202.622 84.3226 203.984 83.9334C206.572 83.1941 206.655 83.1054 206.655 80.2942C206.655 79.1889 205.524 78.904 204.238 78.8883M194.697 77.9531C196.363 76.9594 200.175 77.8994 201.848 77.1558C202 77.0882 202.149 77.0277 202.296 76.9744M198.811 76.0958C199.537 76.1377 200.61 76.3381 201.613 76.6974M198.811 76.0958C198.742 75.9364 198.831 75.7366 199.143 75.4864C200.314 74.5501 202.108 74.8422 203.653 74.8814M198.811 76.0958C199.002 76.5303 200.373 76.6639 201.613 76.6974M201.613 76.6974C201.846 76.7811 202.076 76.8735 202.296 76.9744M201.613 76.6974C202.44 76.7198 203.209 76.6976 203.527 76.6904M202.296 76.9744C203.259 77.4154 204.047 78.021 204.218 78.7918C204.225 78.8246 204.232 78.8568 204.238 78.8883M202.296 76.9744C202.726 76.8186 203.134 76.7239 203.527 76.6904M204.238 78.8883C204.763 81.7775 198.802 79.2281 201.247 79.0923C201.965 79.0523 203.156 78.8751 204.238 78.8883ZM203.527 76.6904C204.291 76.6253 204.999 76.7916 205.694 77.1897M203.527 76.6904C203.583 76.6892 203.625 76.6884 203.651 76.6884C204.305 76.6884 205.051 77.0176 205.694 77.1897M205.694 77.1897C206.016 77.3737 206.335 77.6073 206.655 77.8903C206.954 78.1541 206.913 77.7955 206.646 77.245M205.694 77.1897C206.055 77.2864 206.384 77.3335 206.646 77.245M206.646 77.245C206.201 76.3303 205.13 74.8855 203.951 74.8855C203.853 74.8855 203.753 74.884 203.653 74.8814M206.646 77.245C207.019 77.1188 207.256 76.7162 207.256 75.7869C207.256 74.0567 204.287 73.6272 203.653 74.8814M203.653 74.8814L203.651 74.8855" stroke="white" stroke-width="3" stroke-linecap="round"/>
<path d="M89.3219 40.1905C89.89 38.7217 89.3749 36.9684 88.1628 36.2799C86.9507 35.5914 85.5038 36.2157 84.9356 37.6844L75.2312 62.6623C74.8752 63.5711 74.9358 64.636 75.3752 65.4897C75.8146 66.3434 76.5949 66.8483 77.4282 66.8483H94.3975V74.192C94.3975 75.8168 95.4808 77.1295 96.8217 77.1295C98.1626 77.1295 99.2459 75.8168 99.2459 74.192V66.8483H101.67C103.011 66.8483 104.094 65.5356 104.094 63.9108C104.094 62.286 103.011 60.9733 101.67 60.9733H99.2459V47.7545C99.2459 46.1297 98.1626 44.817 96.8217 44.817C95.4808 44.817 94.3975 46.1297 94.3975 47.7545V60.9733H81.2463L89.3219 40.1905Z" fill="white"/>
<path d="M89.3219 74.1905C89.89 72.7217 89.3749 70.9684 88.1628 70.2799C86.9507 69.5914 85.5038 70.2157 84.9356 71.6844L75.2312 96.6623C74.8752 97.5711 74.9358 98.636 75.3752 99.4897C75.8146 100.343 76.5949 100.848 77.4282 100.848H94.3975V108.192C94.3975 109.817 95.4808 111.13 96.8217 111.13C98.1626 111.13 99.2459 109.817 99.2459 108.192V100.848H101.67C103.011 100.848 104.094 99.5356 104.094 97.9108C104.094 96.286 103.011 94.9733 101.67 94.9733H99.2459V81.7545C99.2459 80.1297 98.1626 78.817 96.8217 78.817C95.4808 78.817 94.3975 80.1297 94.3975 81.7545V94.9733H81.2463L89.3219 74.1905Z" fill="white"/>
<path d="M158.174 39C157.247 39 156.314 39.0484 155.406 39.1621M155.406 39.1621C151.094 39.7018 147.336 41.7118 147.336 46.9865C147.336 54.0087 153.558 53.8321 159.315 53.8321C162.285 53.8321 165.59 54.4684 165.59 50.4093C165.59 48.5705 167.434 44.6967 165.464 43.12C162.602 40.8308 159.049 39.4977 155.406 39.1621ZM155.406 39.1621C153.375 38.975 151.315 39.0981 149.332 39.5388C143.874 40.7517 146.765 49.9946 146.765 53.5469C146.765 56.4176 147.906 59.1034 147.906 62.1039C147.906 65.4218 147.336 68.5704 147.336 71.8018C147.336 83.6076 147.906 95.1712 147.906 106.885M154.752 45.8456C154.507 46.0416 154.015 46.3157 153.439 46.5597M153.439 46.5597C152.328 47.0299 150.902 47.3881 150.315 46.8598C148.895 45.5819 151.493 45.3288 151.899 45.1484C153.22 44.5614 155.982 44.0909 157.109 45.038M153.439 46.5597C153.287 46.988 153.214 47.3693 153.208 47.7086M153.439 46.5597C153.488 46.4217 153.545 46.2788 153.611 46.1308C153.87 45.5483 155.501 45.156 157.109 45.038M157.109 45.038C157.337 45.2293 157.498 45.4785 157.567 45.7963M157.109 45.038C158.501 44.9358 159.876 45.039 160.329 45.4019C161.067 45.9922 161.469 46.5755 161.613 47.1254M157.567 45.7963C157.591 45.9095 157.604 46.0314 157.604 46.1625C157.604 47.7959 157.194 49.162 156.386 50.2271M157.567 45.7963C155.547 45.6402 153.665 46.0565 153.611 46.9865C153.597 47.2189 153.599 47.4383 153.616 47.6453M157.567 45.7963C159.073 45.9128 160.655 46.3477 161.613 47.1254M156.386 50.2271C156.327 50.3048 156.266 50.381 156.203 50.4555M156.386 50.2271C157.043 50.3297 157.749 50.3783 158.448 50.3979M156.386 50.2271C155.724 50.1237 155.111 49.9655 154.603 49.7265M156.203 50.4555C155.344 51.4678 154.096 52.1818 152.47 52.5644C152.399 52.581 152.33 52.5968 152.261 52.6118M156.203 50.4555C156.918 50.5926 157.702 50.5615 158.448 50.3979M156.203 50.4555C155.599 50.3397 155.044 50.1039 154.603 49.7265M152.261 52.6118C148.092 53.5236 147.906 51.3958 147.906 47.8105C147.906 44.2263 147.735 43.6398 150.758 42.296C152.922 41.3346 156.075 41.8523 158.46 41.8523C162.122 41.8523 160.989 43.3738 162.865 45.7188C164.333 47.5534 163.689 48.8939 162.356 49.6612M152.261 52.6118C154.99 53.2672 159.063 53.3594 160.456 52.1207C161.497 51.1953 162.095 50.3767 162.356 49.6612M152.261 52.6118C151.389 52.4022 150.654 52.1351 150.188 51.8355C146.894 49.718 150.477 48.1803 153.208 47.7086M162.356 49.6612C161.501 50.153 160.363 50.4093 159.315 50.4093C159.03 50.4093 158.74 50.4061 158.448 50.3979M162.356 49.6612C162.746 48.5884 162.379 47.7473 161.613 47.1254M158.448 50.3979C160.362 49.9783 162.023 48.6863 161.613 47.1254M154.603 49.7265C153.748 49.324 153.193 48.6925 153.208 47.7086M154.603 49.7265C154.06 49.2613 153.69 48.581 153.616 47.6453M153.208 47.7086C153.347 47.6848 153.483 47.6636 153.616 47.6453M153.616 47.6453C154.037 47.5871 154.426 47.557 154.752 47.557" stroke="white" stroke-width="3" stroke-linecap="round"/>
<path d="M247.247 98.2845C245.318 98.2845 238.746 100.63 238.266 102.792C237.386 106.748 240.46 107.451 242.806 109.436C245.934 112.083 249.195 110.563 252.322 109.67C252.749 109.548 254.36 106.892 254.492 106.431C254.944 104.848 255.211 102.671 255.961 101.022C258.339 95.7907 256.555 89.1256 257.597 83.3938C258.604 77.8512 258.064 71.9525 258.064 66.2995C258.064 61.385 258.665 55.9858 258.665 51.4087V46M246.646 104.294C246.646 103.441 246.652 104.861 246.646 105.029C246.632 105.372 246.558 105.686 246.439 105.977M246.439 105.977C246.078 106.859 245.299 107.526 244.542 108.167C242.423 109.961 240.001 109.017 238.232 107.299C234.115 103.3 235.969 100.087 241.537 100.087C243.713 100.087 251.453 99.5544 251.453 103.393C251.453 107.227 248.886 107.352 246.439 105.977ZM246.439 105.977C245.667 105.542 244.906 104.958 244.242 104.294M240.636 107.9H245.444M246.646 107.9C243.718 107.9 242.355 105.595 241.103 103.092C240.883 102.651 240.752 102.274 240.697 101.953M240.697 101.953C240.381 100.105 242.572 100.087 244.542 100.087C244.625 100.087 244.715 100.09 244.811 100.096M240.697 101.953C239.986 102.377 239.666 103.153 240.068 104.561C240.441 105.864 243.662 107.842 244.843 108.367C246.44 109.077 248.622 108.323 249.984 107.933C252.572 107.194 252.655 107.105 252.655 104.294C252.655 103.189 251.524 102.904 250.238 102.888M240.697 101.953C242.363 100.959 246.175 101.899 247.848 101.156C248 101.088 248.149 101.028 248.296 100.974M244.811 100.096C245.537 100.138 246.61 100.338 247.613 100.697M244.811 100.096C244.742 99.9364 244.831 99.7366 245.143 99.4864C246.314 98.5501 248.108 98.8422 249.653 98.8814M244.811 100.096C245.002 100.53 246.373 100.664 247.613 100.697M247.613 100.697C247.846 100.781 248.076 100.873 248.296 100.974M247.613 100.697C248.44 100.72 249.209 100.698 249.527 100.69M248.296 100.974C249.259 101.415 250.047 102.021 250.218 102.792C250.225 102.825 250.232 102.857 250.238 102.888M248.296 100.974C248.726 100.819 249.134 100.724 249.527 100.69M250.238 102.888C250.763 105.777 244.802 103.228 247.247 103.092C247.965 103.052 249.156 102.875 250.238 102.888ZM249.527 100.69C250.291 100.625 250.999 100.792 251.694 101.19M249.527 100.69C249.583 100.689 249.625 100.688 249.651 100.688C250.305 100.688 251.051 101.018 251.694 101.19M251.694 101.19C252.016 101.374 252.335 101.607 252.655 101.89C252.954 102.154 252.913 101.796 252.646 101.245M251.694 101.19C252.055 101.286 252.384 101.333 252.646 101.245M252.646 101.245C252.201 100.33 251.13 98.8855 249.951 98.8855C249.853 98.8855 249.753 98.884 249.653 98.8814M252.646 101.245C253.019 101.119 253.256 100.716 253.256 99.7869C253.256 98.0567 250.287 97.6272 249.653 98.8814M249.653 98.8814L249.651 98.8855" stroke="white" stroke-width="3" stroke-linecap="round"/>
<path d="M293.247 108.285C291.318 108.285 284.746 110.63 284.266 112.792C283.386 116.748 286.46 117.451 288.806 119.436C291.934 122.083 295.195 120.563 298.322 119.67C298.749 119.548 300.36 116.892 300.492 116.431C300.944 114.848 301.211 112.671 301.961 111.022C304.339 105.791 302.555 99.1256 303.597 93.3938C304.604 87.8512 304.064 81.9525 304.064 76.2995C304.064 71.385 304.665 65.9858 304.665 61.4087V56M292.646 114.294C292.646 113.441 292.652 114.861 292.646 115.029C292.632 115.372 292.558 115.686 292.439 115.977M292.439 115.977C292.078 116.859 291.299 117.526 290.542 118.167C288.423 119.961 286.001 119.017 284.232 117.299C280.115 113.3 281.969 110.087 287.537 110.087C289.713 110.087 297.453 109.554 297.453 113.393C297.453 117.227 294.886 117.352 292.439 115.977ZM292.439 115.977C291.667 115.542 290.906 114.958 290.242 114.294M286.636 117.9H291.444M292.646 117.9C289.718 117.9 288.355 115.595 287.103 113.092C286.883 112.651 286.752 112.274 286.697 111.953M286.697 111.953C286.381 110.105 288.572 110.087 290.542 110.087C290.625 110.087 290.715 110.09 290.811 110.096M286.697 111.953C285.986 112.377 285.666 113.153 286.068 114.561C286.441 115.864 289.662 117.842 290.843 118.367C292.44 119.077 294.622 118.323 295.984 117.933C298.572 117.194 298.655 117.105 298.655 114.294C298.655 113.189 297.524 112.904 296.238 112.888M286.697 111.953C288.363 110.959 292.175 111.899 293.848 111.156C294 111.088 294.149 111.028 294.296 110.974M290.811 110.096C291.537 110.138 292.61 110.338 293.613 110.697M290.811 110.096C290.742 109.936 290.831 109.737 291.143 109.486C292.314 108.55 294.108 108.842 295.653 108.881M290.811 110.096C291.002 110.53 292.373 110.664 293.613 110.697M293.613 110.697C293.846 110.781 294.076 110.873 294.296 110.974M293.613 110.697C294.44 110.72 295.209 110.698 295.527 110.69M294.296 110.974C295.259 111.415 296.047 112.021 296.218 112.792C296.225 112.825 296.232 112.857 296.238 112.888M294.296 110.974C294.726 110.819 295.134 110.724 295.527 110.69M296.238 112.888C296.763 115.777 290.802 113.228 293.247 113.092C293.965 113.052 295.156 112.875 296.238 112.888ZM295.527 110.69C296.291 110.625 296.999 110.792 297.694 111.19M295.527 110.69C295.583 110.689 295.625 110.688 295.651 110.688C296.305 110.688 297.051 111.018 297.694 111.19M297.694 111.19C298.016 111.374 298.335 111.607 298.655 111.89C298.954 112.154 298.913 111.796 298.646 111.245M297.694 111.19C298.055 111.286 298.384 111.333 298.646 111.245M298.646 111.245C298.201 110.33 297.13 108.885 295.951 108.885C295.853 108.885 295.753 108.884 295.653 108.881M298.646 111.245C299.019 111.119 299.256 110.716 299.256 109.787C299.256 108.057 296.287 107.627 295.653 108.881M295.653 108.881L295.651 108.885" stroke="white" stroke-width="3" stroke-linecap="round"/>
</g>
<defs>
<clipPath id="clip0_2_239">
<rect width="414" height="152" fill="white"/>
</clipPath>
<clipPath id="clip1_2_239">
<rect width="119" height="102" fill="white" transform="translate(-29 22)"/>
</clipPath>
</defs>
</svg>
