<svg width="414" height="152" viewBox="0 0 414 152" fill="none" xmlns="http://www.w3.org/2000/svg">
<g clip-path="url(#clip0_2_211)">
<rect width="414" height="152" fill="#0F0F0F"/>
<path d="M11 36.9934L391 36" stroke="white"/>
<path d="M11 54.9934L391 56" stroke="white"/>
<path d="M11 72.9934L391 73" stroke="white"/>
<path d="M11 90.9934L390.5 90.9934" stroke="white"/>
<path d="M11 108.993L391 110" stroke="white"/>
<g clip-path="url(#clip1_2_211)">
<path d="M38.5295 44.7066C36.758 47.0246 34.7026 48.9582 32.4055 50.4717L28.6445 53.0431C22.8967 57.4217 18.7609 60.9593 16.3457 63.5562C11.9466 68.2794 9.53484 73.0775 9.17115 77.817C8.76524 83.1625 10.5444 88.2362 14.4605 92.9011C18.6127 97.8717 23.8542 100.566 30.0437 100.912C31.4618 100.993 33.0156 100.979 34.3079 100.907L33.8249 97.1748C32.9243 97.2457 31.9694 97.2571 30.9688 97.1999C26.9024 96.972 23.2712 95.5338 20.1687 92.9254C16.9266 90.217 15.474 87.232 15.736 83.8026C16.2311 77.3058 21.149 70.874 30.3544 64.6735L34.4665 61.8668C38.0835 59.2171 41.0128 55.8867 43.1776 51.9591C45.3196 48.0603 46.5757 43.8398 46.9148 39.4161C47.1156 36.817 46.6938 33.5897 45.6764 29.8261C44.2799 24.7147 42.2921 22.1566 39.5852 22.0037C38.6234 21.9527 37.5703 22.3679 36.2853 23.3396C33.1604 25.7581 30.8891 28.6881 29.5275 32.0347C28.4769 34.5928 27.7793 38.0141 27.457 42.2025C27.3221 43.9458 27.5918 47.1657 28.2347 51.0527L32.0457 48.027C32.0336 47.5901 32.0478 47.1358 32.087 46.6594C32.2878 43.9923 33.0734 41.0963 34.4113 38.0562C36.116 34.2534 37.7245 33.1036 38.7777 32.81C39.0655 32.7295 39.3465 32.6999 39.6459 32.7162C41.0184 32.7945 42.3856 33.292 42.1516 36.4019C41.9543 39.0386 40.7335 41.8313 38.5295 44.7066Z" fill="white"/>
<path d="M41.9052 99.2527C44.3734 98.3042 46.4818 96.8601 48.186 94.9495C50.3642 92.5262 51.5888 89.6619 51.8345 86.4372C52.1447 82.4781 51.0356 78.8885 48.5523 75.7649C45.8281 72.3433 42.0973 70.477 37.4587 70.2151C36.9278 70.1852 36.3629 70.1874 35.7803 70.2244L34.7875 63.8749L30.6215 66.5017L31.2605 71.0055C28.766 71.8894 26.5952 73.2844 24.7897 75.1625C22.7114 77.3505 21.5544 79.7583 21.358 82.3212C21.1572 84.9834 21.85 87.4218 23.4185 89.5541C24.2351 90.692 25.3606 91.7037 26.6494 92.5303C28.7635 93.8784 31.2011 93.7772 31.5872 93.0448C31.9776 92.3123 30.5293 91.1629 29.3939 89.629C28.7467 88.7607 28.4278 87.7184 28.4278 86.4907C28.4278 83.8857 30.2617 81.6464 32.8734 80.6554L35.3179 96.9846L35.8889 100.773C36.2612 102.573 36.6296 104.365 36.9821 106.136C37.413 108.533 37.5647 110.61 37.4307 112.31C37.2501 114.664 36.393 116.588 34.8801 118.032C33.9175 118.95 32.7928 119.53 31.5212 119.851C33.228 118.388 34.2851 116.368 34.2851 114.134C34.2851 109.675 30.0657 106.056 24.8612 106.056C23.4164 106.056 22.0642 106.356 20.8413 106.853C20.6862 106.911 20.5401 106.997 20.3871 107.065C20.0515 107.222 19.7154 107.379 19.4021 107.569C19.2948 107.638 19.1922 107.717 19.0867 107.792C16.9804 109.201 15.6002 111.344 15.4778 113.786C15.4778 113.79 15.4731 113.794 15.4731 113.798C15.4731 113.799 15.4731 113.801 15.4731 113.803C15.4675 113.918 15.4343 114.021 15.4343 114.134C15.4343 114.23 15.4632 114.316 15.4679 114.408C15.4632 117.024 16.7318 119.275 19.2767 121.1C21.6829 122.823 24.5669 123.788 27.8482 123.972C29.7127 124.075 31.5131 123.892 33.1944 123.423C34.5686 123.039 35.8984 122.456 37.1368 121.692C40.1359 119.837 41.769 117.414 41.9939 114.478C42.1658 112.239 42.0344 109.59 41.5902 106.57L40.3673 99.7635L37.2837 80.2255C40.724 80.7913 43.328 83.3808 43.328 86.4926C43.328 88.7035 42.4933 92.1919 40.936 94.0184L41.9052 99.2527Z" fill="white"/>
</g>
<path d="M89.3219 40.1905C89.89 38.7217 89.3749 36.9684 88.1628 36.2799C86.9507 35.5914 85.5038 36.2157 84.9356 37.6844L75.2312 62.6623C74.8752 63.5711 74.9358 64.636 75.3752 65.4897C75.8146 66.3434 76.5949 66.8483 77.4282 66.8483H94.3975V74.192C94.3975 75.8168 95.4808 77.1295 96.8217 77.1295C98.1626 77.1295 99.2459 75.8168 99.2459 74.192V66.8483H101.67C103.011 66.8483 104.094 65.5356 104.094 63.9108C104.094 62.286 103.011 60.9733 101.67 60.9733H99.2459V47.7545C99.2459 46.1297 98.1626 44.817 96.8217 44.817C95.4808 44.817 94.3975 46.1297 94.3975 47.7545V60.9733H81.2463L89.3219 40.1905Z" fill="white"/>
<path d="M89.3219 74.1905C89.89 72.7217 89.3749 70.9684 88.1628 70.2799C86.9507 69.5914 85.5038 70.2157 84.9356 71.6844L75.2312 96.6623C74.8752 97.5711 74.9358 98.636 75.3752 99.4897C75.8146 100.343 76.5949 100.848 77.4282 100.848H94.3975V108.192C94.3975 109.817 95.4808 111.13 96.8217 111.13C98.1626 111.13 99.2459 109.817 99.2459 108.192V100.848H101.67C103.011 100.848 104.094 99.5356 104.094 97.9108C104.094 96.286 103.011 94.9733 101.67 94.9733H99.2459V81.7545C99.2459 80.1297 98.1626 78.817 96.8217 78.817C95.4808 78.817 94.3975 80.1297 94.3975 81.7545V94.9733H81.2463L89.3219 74.1905Z" fill="white"/>
<path d="M154.629 29.1113C150.066 29.1113 139.622 27.0954 139.236 34.037C139.135 35.8545 137.23 40.6991 139.578 42.0412C142.453 43.684 146.112 44.5041 149.396 44.5041C152.166 44.5041 154.937 44.5041 157.708 44.5041C160.653 44.5041 160.786 40.5168 160.786 38.347C160.786 32.123 153.018 29.1113 147.583 29.1113C144.251 29.1113 142.907 28.9867 140.947 31.4373C139.551 33.1825 136.774 35.7966 136.774 38.0391C136.774 39.1261 136.158 40.1206 136.158 41.4255C136.158 43.3981 137.389 44.9843 137.389 46.9669C137.389 49.8402 137.389 52.7135 137.389 55.5868C137.389 69.1325 137.389 82.6781 137.389 96.2237" stroke="white" stroke-width="3" stroke-linecap="round"/>
<path d="M192.187 38.9626C189.938 38.9626 183.673 37.836 182.199 40.1941C180.489 42.9303 179.258 43.6857 179.258 47.2747C179.258 53.7382 189.925 53.7397 194.035 53.7397C196.221 53.7397 198.61 55.2516 200.671 53.6029C203.277 51.5176 202.655 48.4668 202.655 45.4276C202.655 40.4112 192.193 35.8128 188.185 38.0391C187.149 38.6149 185.885 38.6168 184.799 39.0995C183.199 39.8106 182.656 41.0466 181.413 42.0412C179.615 43.4793 178.642 46.6977 178.642 48.814C178.642 55.2797 179.258 61.864 179.258 68.1747C179.258 81.4376 178.642 94.8436 178.642 107.922" stroke="white" stroke-width="3" stroke-linecap="round"/>
<path d="M240.213 50.0454C233.903 50.0454 227.806 49.1803 223.11 53.8765C218.06 58.926 229.741 62.9754 233.132 62.9754C237.345 62.9754 245.333 64.4542 246.336 58.939C246.883 55.9306 247.956 53.321 244.831 51.5847C242.303 50.1804 239.367 50.0454 236.519 50.0454C230.705 50.0454 225.487 49.289 221.605 53.6029C219.167 56.3113 219.279 57.3962 219.279 61.1282C219.279 65.2664 220.51 69.4391 220.51 73.7161C220.51 87.9075 220.51 102.327 220.51 116.542" stroke="white" stroke-width="3" stroke-linecap="round"/>
<path d="M275.924 58.6653C269.19 58.6653 262.378 58.0395 262.378 66.9774C262.378 73.6185 270.673 73.4424 275.787 73.4424C278.679 73.4424 282.408 75.6094 284.407 72.211C285.909 69.6575 287.007 68.1956 287.007 65.1303C287.007 62.1368 287.126 59.0953 283.586 58.0838C280.961 57.3337 278.209 57.4339 275.308 57.4339C271.973 57.4339 269.039 57.2102 266.073 58.5285C262.792 59.9867 262.513 63.1415 261.797 66.3617C260.519 72.1126 261.147 78.5476 261.147 84.5252C261.147 88.4345 261.763 92.5066 261.763 96.2237C261.763 100.029 262.994 103.701 262.994 107.614C262.994 113.601 263.61 119.235 263.61 125.162" stroke="white" stroke-width="3" stroke-linecap="round"/>
<path d="M143.546 34.037C143.546 35.4801 143.825 37.2466 143.512 38.6548C143.276 39.7158 141.78 42.1697 141.118 39.852C139.645 34.6984 147.252 32.7015 148.438 38.0391C148.87 39.986 146.193 41.2582 144.504 40.7756C141.904 40.0327 142.225 35.5576 142.623 33.7291C143.493 29.7257 149.631 27.6546 152.44 31.2663C154.416 33.8072 155.564 40.4311 151.243 41.3913C147.111 42.3095 145.079 30.9584 149.396 30.9584C153.843 30.9584 156.108 36.4096 152.474 39.2363C151.586 39.9271 147.212 40.0975 146.351 39.2363C144.415 37.3004 146.543 34.9012 148.472 34.6869C151.354 34.3667 160.117 38.0216 155.861 42.0412C152.304 45.3997 145.26 37.4987 153.398 37.7312C155.099 37.7798 157.507 39.4405 156.339 41.4255C155.439 42.9556 147.568 42.3106 146.146 41.9044C141.432 40.5575 144.981 33.0217 149.088 32.8055C152.061 32.649 158.078 32.0765 158.323 36.4998C158.578 41.087 156.975 44.9568 151.551 43.7515C147.998 42.9621 141.962 41.8511 141.699 37.1155C141.563 34.6617 141.925 33.4451 144.162 32.3267C145.392 31.7115 148.586 31.3454 149.088 30.3427" stroke="white" stroke-width="3" stroke-linecap="round"/>
<path d="M194.035 45.7355C191.83 45.7355 186.96 46.755 185.894 44.5041C183.447 39.3384 192.74 40.9921 194.65 43.7515C197.156 47.3713 195.928 51.1644 191.093 51.2769C186.266 51.3891 182.733 51.5687 182.952 45.8723C183.12 41.4915 193.282 43.0186 195.266 45.1198C198.985 49.0572 189.073 50.3112 186.783 48.814C184.768 47.4965 186.315 44.5603 188.014 43.8883C190.824 42.7775 193.122 43.3179 195.745 44.3672C197.303 44.9904 198.987 49.1294 197.592 50.5243C194.804 53.3127 190.774 41.5798 194.787 41.4255C198.349 41.2885 200.029 44.5008 195.882 45.5987C190.146 47.117 194.3 40.5364 198.208 44.0252C198.904 44.647 201.489 46.4636 201.423 47.5826C201.288 49.8744 196.223 49.4297 194.787 49.4297C192.796 49.4297 192.187 49.1359 192.187 46.9669C192.187 44.7259 194.231 45.0536 196.019 45.1198C197.033 45.1574 200.008 46.8764 198.687 48.1983C197.366 49.5189 195.158 49.532 193.419 49.4297C191.623 49.3241 194.036 47.0074 195.129 46.9669C196.898 46.9014 198.538 47.0118 199.439 48.814C201.519 52.9734 194.406 50.6612 192.803 50.6612" stroke="white" stroke-width="3" stroke-linecap="round"/>
<path d="M236.519 57.4339C235.296 57.5868 236.007 60.5394 235.869 61.4361C235.534 63.6139 229.204 64.3475 227.42 64.0699C225.827 63.8222 223.589 63.4212 223.589 61.4361C223.589 60.46 223.132 58.3755 224.273 58.0497C226.119 57.5221 236.007 55.9452 236.997 58.0497C237.86 59.8827 231.213 59.2725 230.396 58.9048C228.397 58.0055 227.463 56.2305 227.933 54.1159C228.641 50.9295 237.642 53.9736 239.118 55.45C240.882 57.2138 231.113 58.1801 228.856 55.279C227.28 53.2523 233.945 53.124 234.671 53.124C237.701 53.124 240.604 53.4198 243.291 54.8343C244.703 55.5772 244.982 57.1454 244.147 58.6312C242.525 61.5131 237.437 60.5238 235.048 59.5889C229.149 57.2805 235.973 52.479 239.905 54.6632C241.048 55.2982 241.301 56.7131 239.939 57.4339C237.039 58.9694 232.954 59.2362 229.883 58.0497C228.876 57.6607 226.224 56.0988 227.625 54.6975C229.185 53.1377 233.233 53.7397 235.253 53.7397C239.946 53.7397 235.997 59.622 231.867 58.5285C230.621 58.1988 229.13 56.5342 229.13 55.2447C229.13 52.3624 232.953 53.124 234.979 53.124C236.035 53.124 240.473 52.4268 241.307 53.2608C242.854 54.8076 239.272 57.6415 238.229 58.0497C235.745 59.0215 220.609 58.6345 225.504 53.7397C227.952 51.2918 235.763 52.0511 238.981 53.124" stroke="white" stroke-width="3" stroke-linecap="round"/>
<path d="M272.23 66.0539C271.123 66.1769 266.688 67.8833 266.688 65.746C266.688 60.6279 277.433 63.5659 279.858 64.5146C286.433 67.0876 277.452 70.9159 274.077 70.9796C271.99 71.0189 269.385 71.5231 268.228 69.4403C267.351 67.8627 266.684 65.2103 268.057 63.7279C270.015 61.613 279.008 61.2017 281.089 63.2832C282.487 64.6807 280.773 66.9531 279.618 67.7642C276.563 69.9114 270.928 69.4214 267.373 69.0982C262.091 68.6181 265.002 62.5886 268.536 61.6071C272.869 60.4033 277.058 62.7898 280.85 64.6856C283.598 66.0597 274.127 69.1958 271.956 68.2089C269.476 67.0816 270.534 61.7439 273.461 61.7439C274.871 61.7439 280.886 60.8222 281.944 61.8807C283.069 63.0051 282.314 70.2483 280.234 70.3639C275.803 70.61 273.505 68.4758 274.111 63.6252C274.504 60.4835 279.991 60.4869 282.355 61.1624C287.021 62.4956 279.264 77.3066 275.924 67.2853" stroke="white" stroke-width="3" stroke-linecap="round"/>
</g>
<defs>
<clipPath id="clip0_2_211">
<rect width="414" height="152" fill="white"/>
</clipPath>
<clipPath id="clip1_2_211">
<rect width="119" height="102" fill="white" transform="translate(-29 22)"/>
</clipPath>
</defs>
</svg>
