<svg width="414" height="152" viewBox="0 0 414 152" fill="none" xmlns="http://www.w3.org/2000/svg">
<g clip-path="url(#clip0_2_225)">
<rect width="414" height="152" fill="#0F0F0F"/>
<path d="M11 36.9934L391 36" stroke="white"/>
<path d="M11 54.9934L391 56" stroke="white"/>
<path d="M11 72.9934L391 73" stroke="white"/>
<path d="M11 90.9934L390.5 90.9934" stroke="white"/>
<path d="M11 108.993L391 110" stroke="white"/>
<path d="M138 124L183 124" stroke="white"/>
<g clip-path="url(#clip1_2_225)">
<path d="M38.5294 44.7066C36.758 47.0246 34.7025 48.9582 32.4054 50.4717L28.6445 53.0431C22.8967 57.4217 18.7608 60.9593 16.3456 63.5562C11.9465 68.2794 9.53478 73.0775 9.17109 77.817C8.76518 83.1625 10.5444 88.2362 14.4604 92.9011C18.6126 97.8717 23.8541 100.566 30.0436 100.912C31.4617 100.993 33.0156 100.979 34.3078 100.907L33.8248 97.1748C32.9242 97.2457 31.9693 97.2571 30.9688 97.1999C26.9023 96.972 23.2711 95.5338 20.1686 92.9255C16.9265 90.217 15.4739 87.232 15.7359 83.8026C16.231 77.3058 21.1489 70.874 30.3543 64.6735L34.4664 61.8668C38.0834 59.2171 41.0127 55.8867 43.1776 51.9591C45.3196 48.0603 46.5757 43.8398 46.9148 39.4161C47.1156 36.817 46.6937 33.5897 45.6764 29.8261C44.2798 24.7147 42.292 22.1566 39.5851 22.0037C38.6233 21.9527 37.5702 22.3679 36.2853 23.3396C33.1603 25.7581 30.8891 28.6881 29.5274 32.0347C28.4769 34.5928 27.7792 38.0141 27.4569 42.2025C27.322 43.9458 27.5918 47.1657 28.2347 51.0527L32.0456 48.027C32.0335 47.5901 32.0478 47.1358 32.087 46.6594C32.2878 43.9923 33.0733 41.0963 34.4113 38.0562C36.1159 34.2534 37.7245 33.1036 38.7776 32.81C39.0654 32.7295 39.3464 32.6999 39.6459 32.7162C41.0183 32.7945 42.3856 33.292 42.1516 36.4019C41.9542 39.0386 40.7335 41.8313 38.5294 44.7066Z" fill="white"/>
<path d="M41.9052 99.2527C44.3734 98.3042 46.4818 96.8601 48.186 94.9495C50.3642 92.5262 51.5888 89.6619 51.8345 86.4372C52.1447 82.4781 51.0356 78.8885 48.5523 75.7649C45.8281 72.3433 42.0973 70.477 37.4587 70.2151C36.9278 70.1852 36.3629 70.1874 35.7803 70.2244L34.7875 63.8749L30.6215 66.5017L31.2605 71.0055C28.766 71.8894 26.5952 73.2844 24.7897 75.1625C22.7114 77.3505 21.5544 79.7583 21.358 82.3212C21.1572 84.9834 21.85 87.4218 23.4185 89.5541C24.2351 90.692 25.3606 91.7037 26.6494 92.5303C28.7635 93.8784 31.2011 93.7772 31.5872 93.0448C31.9776 92.3123 30.5293 91.1629 29.3939 89.629C28.7467 88.7607 28.4278 87.7184 28.4278 86.4907C28.4278 83.8857 30.2617 81.6464 32.8734 80.6554L35.3179 96.9846L35.8889 100.773C36.2612 102.573 36.6296 104.365 36.9821 106.136C37.413 108.533 37.5647 110.61 37.4307 112.31C37.2501 114.664 36.393 116.588 34.8801 118.032C33.9175 118.95 32.7928 119.53 31.5212 119.851C33.228 118.388 34.2851 116.368 34.2851 114.134C34.2851 109.675 30.0657 106.056 24.8612 106.056C23.4164 106.056 22.0642 106.356 20.8413 106.853C20.6862 106.911 20.5401 106.997 20.3871 107.065C20.0515 107.222 19.7154 107.379 19.4021 107.569C19.2948 107.638 19.1922 107.717 19.0867 107.792C16.9804 109.201 15.6002 111.344 15.4778 113.786C15.4778 113.79 15.4731 113.794 15.4731 113.798C15.4731 113.799 15.4731 113.801 15.4731 113.803C15.4675 113.918 15.4343 114.021 15.4343 114.134C15.4343 114.23 15.4632 114.316 15.4679 114.408C15.4632 117.024 16.7318 119.275 19.2767 121.1C21.6829 122.823 24.5669 123.788 27.8482 123.972C29.7127 124.075 31.5131 123.892 33.1944 123.423C34.5686 123.039 35.8984 122.456 37.1368 121.692C40.1359 119.837 41.769 117.414 41.9939 114.478C42.1658 112.239 42.0344 109.59 41.5902 106.57L40.3673 99.7635L37.2837 80.2255C40.724 80.7913 43.328 83.3808 43.328 86.4926C43.328 88.7035 42.4933 92.1919 40.936 94.0184L41.9052 99.2527Z" fill="white"/>
</g>
<path d="M89.3219 40.1905C89.89 38.7217 89.3749 36.9684 88.1628 36.2799C86.9507 35.5914 85.5038 36.2157 84.9356 37.6844L75.2312 62.6623C74.8752 63.5711 74.9358 64.636 75.3752 65.4897C75.8146 66.3434 76.5949 66.8483 77.4282 66.8483H94.3975V74.192C94.3975 75.8168 95.4808 77.1295 96.8217 77.1295C98.1626 77.1295 99.2459 75.8168 99.2459 74.192V66.8483H101.67C103.011 66.8483 104.094 65.5356 104.094 63.9108C104.094 62.286 103.011 60.9733 101.67 60.9733H99.2459V47.7545C99.2459 46.1297 98.1626 44.817 96.8217 44.817C95.4808 44.817 94.3975 46.1297 94.3975 47.7545V60.9733H81.2463L89.3219 40.1905Z" fill="white"/>
<path d="M89.3219 74.1905C89.89 72.7217 89.3749 70.9684 88.1628 70.2799C86.9507 69.5914 85.5038 70.2157 84.9356 71.6844L75.2312 96.6623C74.8752 97.5711 74.9358 98.636 75.3752 99.4897C75.8146 100.343 76.5949 100.848 77.4282 100.848H94.3975V108.192C94.3975 109.817 95.4808 111.13 96.8217 111.13C98.1626 111.13 99.2459 109.817 99.2459 108.192V100.848H101.67C103.011 100.848 104.094 99.5356 104.094 97.9108C104.094 96.286 103.011 94.9733 101.67 94.9733H99.2459V81.7545C99.2459 80.1297 98.1626 78.817 96.8217 78.817C95.4808 78.817 94.3975 80.1297 94.3975 81.7545V94.9733H81.2463L89.3219 74.1905Z" fill="white"/>
<path d="M149.247 102.285C147.318 102.285 140.746 104.63 140.266 106.792C139.386 110.748 142.46 111.451 144.806 113.436C147.934 116.083 151.195 114.563 154.322 113.67C154.749 113.548 156.36 110.892 156.492 110.431C156.944 108.848 157.211 106.671 157.961 105.022C160.339 99.7907 158.555 93.1256 159.597 87.3938C160.604 81.8512 160.064 75.9525 160.064 70.2995C160.064 65.385 160.665 59.9858 160.665 55.4087V50M148.646 108.294C148.646 107.441 148.652 108.861 148.646 109.029C148.632 109.372 148.558 109.686 148.439 109.977M148.439 109.977C148.078 110.859 147.299 111.526 146.542 112.167C144.423 113.961 142.001 113.017 140.232 111.299C136.115 107.3 137.969 104.087 143.537 104.087C145.713 104.087 153.453 103.554 153.453 107.393C153.453 111.227 150.886 111.352 148.439 109.977ZM148.439 109.977C147.667 109.542 146.906 108.958 146.242 108.294M142.636 111.9H147.444M148.646 111.9C145.718 111.9 144.355 109.595 143.103 107.092C142.883 106.651 142.752 106.274 142.697 105.953M142.697 105.953C142.381 104.105 144.572 104.087 146.542 104.087C146.625 104.087 146.715 104.09 146.811 104.096M142.697 105.953C141.986 106.377 141.666 107.153 142.068 108.561C142.441 109.864 145.662 111.842 146.843 112.367C148.44 113.077 150.622 112.323 151.984 111.933C154.572 111.194 154.655 111.105 154.655 108.294C154.655 107.189 153.524 106.904 152.238 106.888M142.697 105.953C144.363 104.959 148.175 105.899 149.848 105.156C150 105.088 150.149 105.028 150.296 104.974M146.811 104.096C147.537 104.138 148.61 104.338 149.613 104.697M146.811 104.096C146.742 103.936 146.831 103.737 147.143 103.486C148.314 102.55 150.108 102.842 151.653 102.881M146.811 104.096C147.002 104.53 148.373 104.664 149.613 104.697M149.613 104.697C149.846 104.781 150.076 104.873 150.296 104.974M149.613 104.697C150.44 104.72 151.209 104.698 151.527 104.69M150.296 104.974C151.259 105.415 152.047 106.021 152.218 106.792C152.225 106.825 152.232 106.857 152.238 106.888M150.296 104.974C150.726 104.819 151.134 104.724 151.527 104.69M152.238 106.888C152.763 109.777 146.802 107.228 149.247 107.092C149.965 107.052 151.156 106.875 152.238 106.888ZM151.527 104.69C152.291 104.625 152.999 104.792 153.694 105.19M151.527 104.69C151.583 104.689 151.625 104.688 151.651 104.688C152.305 104.688 153.051 105.018 153.694 105.19M153.694 105.19C154.016 105.374 154.335 105.607 154.655 105.89C154.954 106.154 154.913 105.796 154.646 105.245M153.694 105.19C154.055 105.286 154.384 105.333 154.646 105.245M154.646 105.245C154.201 104.33 153.13 102.885 151.951 102.885C151.853 102.885 151.753 102.884 151.653 102.881M154.646 105.245C155.019 105.119 155.256 104.716 155.256 103.787C155.256 102.057 152.287 101.627 151.653 102.881M151.653 102.881L151.651 102.885" stroke="white" stroke-width="3" stroke-linecap="round"/>
<path d="M194.247 93.2845C192.318 93.2845 185.746 95.63 185.266 97.7918C184.386 101.748 187.46 102.451 189.806 104.436C192.934 107.083 196.195 105.563 199.322 104.67C199.749 104.548 201.36 101.892 201.492 101.431C201.944 99.8484 202.211 97.671 202.961 96.0223C205.339 90.7907 203.555 84.1256 204.597 78.3938C205.604 72.8512 205.064 66.9525 205.064 61.2995C205.064 56.385 205.665 50.9858 205.665 46.4087V41M193.646 99.2942C193.646 98.4413 193.652 99.8605 193.646 100.029C193.632 100.372 193.558 100.686 193.439 100.977M193.439 100.977C193.078 101.859 192.299 102.526 191.542 103.167C189.423 104.961 187.001 104.017 185.232 102.299C181.115 98.2996 182.969 95.0874 188.537 95.0874C190.713 95.0874 198.453 94.5544 198.453 98.3928C198.453 102.227 195.886 102.352 193.439 100.977ZM193.439 100.977C192.667 100.542 191.906 99.9583 191.242 99.2942M187.636 102.9H192.444M193.646 102.9C190.718 102.9 189.355 100.595 188.103 98.0923C187.883 97.6509 187.752 97.2743 187.697 96.9531M187.697 96.9531C187.381 95.1049 189.572 95.0874 191.542 95.0874C191.625 95.0874 191.715 95.0902 191.811 95.0958M187.697 96.9531C186.986 97.377 186.666 98.1528 187.068 99.5613C187.441 100.864 190.662 102.842 191.843 103.367C193.44 104.077 195.622 103.323 196.984 102.933C199.572 102.194 199.655 102.105 199.655 99.2942C199.655 98.1889 198.524 97.904 197.238 97.8883M187.697 96.9531C189.363 95.9594 193.175 96.8994 194.848 96.1558C195 96.0882 195.149 96.0277 195.296 95.9744M191.811 95.0958C192.537 95.1377 193.61 95.3381 194.613 95.6974M191.811 95.0958C191.742 94.9364 191.831 94.7366 192.143 94.4864C193.314 93.5501 195.108 93.8422 196.653 93.8814M191.811 95.0958C192.002 95.5303 193.373 95.6639 194.613 95.6974M194.613 95.6974C194.846 95.7811 195.076 95.8735 195.296 95.9744M194.613 95.6974C195.44 95.7198 196.209 95.6976 196.527 95.6904M195.296 95.9744C196.259 96.4154 197.047 97.021 197.218 97.7918C197.225 97.8246 197.232 97.8568 197.238 97.8883M195.296 95.9744C195.726 95.8186 196.134 95.7239 196.527 95.6904M197.238 97.8883C197.763 100.777 191.802 98.2281 194.247 98.0923C194.965 98.0523 196.156 97.8751 197.238 97.8883ZM196.527 95.6904C197.291 95.6253 197.999 95.7916 198.694 96.1897M196.527 95.6904C196.583 95.6892 196.625 95.6884 196.651 95.6884C197.305 95.6884 198.051 96.0176 198.694 96.1897M198.694 96.1897C199.016 96.3737 199.335 96.6073 199.655 96.8903C199.954 97.1541 199.913 96.7955 199.646 96.245M198.694 96.1897C199.055 96.2864 199.384 96.3335 199.646 96.245M199.646 96.245C199.201 95.3303 198.13 93.8855 196.951 93.8855C196.853 93.8855 196.753 93.884 196.653 93.8814M199.646 96.245C200.019 96.1188 200.256 95.7162 200.256 94.7869C200.256 93.0567 197.287 92.6272 196.653 93.8814M196.653 93.8814L196.651 93.8855" stroke="white" stroke-width="3" stroke-linecap="round"/>
<path d="M239.247 76.2845C237.318 76.2845 230.746 78.63 230.266 80.7918C229.386 84.7478 232.46 85.4506 234.806 87.4359C237.934 90.0827 241.195 88.5628 244.322 87.6696C244.749 87.5475 246.36 84.8925 246.492 84.431C246.944 82.8484 247.211 80.671 247.961 79.0223C250.339 73.7907 248.555 67.1256 249.597 61.3938C250.604 55.8512 250.064 49.9525 250.064 44.2995C250.064 39.385 250.665 33.9858 250.665 29.4087V24M238.646 82.2942C238.646 81.4413 238.652 82.8605 238.646 83.0287C238.632 83.3724 238.558 83.6861 238.439 83.9766M238.439 83.9766C238.078 84.8587 237.299 85.5265 236.542 86.1671C234.423 87.9605 232.001 87.017 230.232 85.2991C226.115 81.2996 227.969 78.0874 233.537 78.0874C235.713 78.0874 243.453 77.5544 243.453 81.3928C243.453 85.2272 240.886 85.3521 238.439 83.9766ZM238.439 83.9766C237.667 83.5423 236.906 82.9583 236.242 82.2942M232.636 85.9H237.444M238.646 85.9C235.718 85.9 234.355 83.5954 233.103 81.0923C232.883 80.6509 232.752 80.2743 232.697 79.9531M232.697 79.9531C232.381 78.1049 234.572 78.0874 236.542 78.0874C236.625 78.0874 236.715 78.0902 236.811 78.0958M232.697 79.9531C231.986 80.377 231.666 81.1528 232.068 82.5613C232.441 83.8637 235.662 85.8424 236.843 86.3675C238.44 87.0772 240.622 86.3226 241.984 85.9334C244.572 85.1941 244.655 85.1054 244.655 82.2942C244.655 81.1889 243.524 80.904 242.238 80.8883M232.697 79.9531C234.363 78.9594 238.175 79.8994 239.848 79.1558C240 79.0882 240.149 79.0277 240.296 78.9744M236.811 78.0958C237.537 78.1377 238.61 78.3381 239.613 78.6974M236.811 78.0958C236.742 77.9364 236.831 77.7366 237.143 77.4864C238.314 76.5501 240.108 76.8422 241.653 76.8814M236.811 78.0958C237.002 78.5303 238.373 78.6639 239.613 78.6974M239.613 78.6974C239.846 78.7811 240.076 78.8735 240.296 78.9744M239.613 78.6974C240.44 78.7198 241.209 78.6976 241.527 78.6904M240.296 78.9744C241.259 79.4154 242.047 80.021 242.218 80.7918C242.225 80.8246 242.232 80.8568 242.238 80.8883M240.296 78.9744C240.726 78.8186 241.134 78.7239 241.527 78.6904M242.238 80.8883C242.763 83.7775 236.802 81.2281 239.247 81.0923C239.965 81.0523 241.156 80.8751 242.238 80.8883ZM241.527 78.6904C242.291 78.6253 242.999 78.7916 243.694 79.1897M241.527 78.6904C241.583 78.6892 241.625 78.6884 241.651 78.6884C242.305 78.6884 243.051 79.0176 243.694 79.1897M243.694 79.1897C244.016 79.3737 244.335 79.6073 244.655 79.8903C244.954 80.1541 244.913 79.7955 244.646 79.245M243.694 79.1897C244.055 79.2864 244.384 79.3335 244.646 79.245M244.646 79.245C244.201 78.3303 243.13 76.8855 241.951 76.8855C241.853 76.8855 241.753 76.884 241.653 76.8814M244.646 79.245C245.019 79.1188 245.256 78.7162 245.256 77.7869C245.256 76.0567 242.287 75.6272 241.653 76.8814M241.653 76.8814L241.651 76.8855" stroke="white" stroke-width="3" stroke-linecap="round"/>
<path d="M285.174 41C284.247 41 283.314 41.0484 282.406 41.1621M282.406 41.1621C278.094 41.7018 274.336 43.7118 274.336 48.9865C274.336 56.0087 280.558 55.8321 286.315 55.8321C289.285 55.8321 292.59 56.4684 292.59 52.4093C292.59 50.5705 294.434 46.6967 292.464 45.12C289.602 42.8308 286.049 41.4977 282.406 41.1621ZM282.406 41.1621C280.375 40.975 278.315 41.0981 276.332 41.5388C270.874 42.7517 273.765 51.9946 273.765 55.5469C273.765 58.4176 274.906 61.1034 274.906 64.1039C274.906 67.4218 274.336 70.5704 274.336 73.8018C274.336 85.6076 274.906 97.1712 274.906 108.885M281.752 47.8456C281.507 48.0416 281.015 48.3157 280.439 48.5597M280.439 48.5597C279.328 49.0299 277.902 49.3881 277.315 48.8598C275.895 47.5819 278.493 47.3288 278.899 47.1484C280.22 46.5614 282.982 46.0909 284.109 47.038M280.439 48.5597C280.287 48.988 280.214 49.3693 280.208 49.7086M280.439 48.5597C280.488 48.4217 280.545 48.2788 280.611 48.1308C280.87 47.5483 282.501 47.156 284.109 47.038M284.109 47.038C284.337 47.2293 284.498 47.4785 284.567 47.7963M284.109 47.038C285.501 46.9358 286.876 47.039 287.329 47.4019C288.067 47.9922 288.469 48.5755 288.613 49.1254M284.567 47.7963C284.591 47.9095 284.604 48.0314 284.604 48.1625C284.604 49.7959 284.194 51.162 283.386 52.2271M284.567 47.7963C282.547 47.6402 280.665 48.0565 280.611 48.9865C280.597 49.2189 280.599 49.4383 280.616 49.6453M284.567 47.7963C286.073 47.9128 287.655 48.3477 288.613 49.1254M283.386 52.2271C283.327 52.3048 283.266 52.381 283.203 52.4555M283.386 52.2271C284.043 52.3297 284.749 52.3783 285.448 52.3979M283.386 52.2271C282.724 52.1237 282.111 51.9655 281.603 51.7265M283.203 52.4555C282.344 53.4678 281.096 54.1818 279.47 54.5644C279.399 54.581 279.33 54.5968 279.261 54.6118M283.203 52.4555C283.918 52.5926 284.702 52.5615 285.448 52.3979M283.203 52.4555C282.599 52.3397 282.044 52.1039 281.603 51.7265M279.261 54.6118C275.092 55.5236 274.906 53.3958 274.906 49.8105C274.906 46.2263 274.735 45.6398 277.758 44.296C279.922 43.3346 283.075 43.8523 285.46 43.8523C289.122 43.8523 287.989 45.3738 289.865 47.7188C291.333 49.5534 290.689 50.8939 289.356 51.6612M279.261 54.6118C281.99 55.2672 286.063 55.3594 287.456 54.1207C288.497 53.1953 289.095 52.3767 289.356 51.6612M279.261 54.6118C278.389 54.4022 277.654 54.1351 277.188 53.8355C273.894 51.718 277.477 50.1803 280.208 49.7086M289.356 51.6612C288.501 52.153 287.363 52.4093 286.315 52.4093C286.03 52.4093 285.74 52.4061 285.448 52.3979M289.356 51.6612C289.746 50.5884 289.379 49.7473 288.613 49.1254M285.448 52.3979C287.362 51.9783 289.023 50.6863 288.613 49.1254M281.603 51.7265C280.748 51.324 280.193 50.6925 280.208 49.7086M281.603 51.7265C281.06 51.2613 280.69 50.581 280.616 49.6453M280.208 49.7086C280.347 49.6848 280.483 49.6636 280.616 49.6453M280.616 49.6453C281.037 49.5871 281.426 49.557 281.752 49.557" stroke="white" stroke-width="3" stroke-linecap="round"/>
</g>
<defs>
<clipPath id="clip0_2_225">
<rect width="414" height="152" fill="white"/>
</clipPath>
<clipPath id="clip1_2_225">
<rect width="119" height="102" fill="white" transform="translate(-29 22)"/>
</clipPath>
</defs>
</svg>
