<svg width="414" height="152" viewBox="0 0 414 152" fill="none" xmlns="http://www.w3.org/2000/svg">
<g clip-path="url(#clip0_2_267)">
<rect width="414" height="152" fill="#0F0F0F"/>
<path d="M11 36.9934L391 36" stroke="white"/>
<path d="M11 54.9934L391 56" stroke="white"/>
<path d="M11 72.9934L391 73" stroke="white"/>
<path d="M10.9999 90.9934L390.5 90.9934" stroke="white"/>
<path d="M11 108.993L391 110" stroke="white"/>
<g clip-path="url(#clip1_2_267)">
<path d="M38.5294 44.7066C36.758 47.0246 34.7025 48.9582 32.4054 50.4717L28.6445 53.0431C22.8967 57.4217 18.7608 60.9593 16.3456 63.5562C11.9465 68.2794 9.53478 73.0775 9.17109 77.817C8.76518 83.1625 10.5444 88.2362 14.4604 92.9011C18.6126 97.8717 23.8541 100.566 30.0436 100.912C31.4617 100.993 33.0156 100.979 34.3078 100.907L33.8248 97.1748C32.9242 97.2457 31.9693 97.2571 30.9688 97.1999C26.9023 96.972 23.2711 95.5338 20.1686 92.9255C16.9265 90.217 15.4739 87.232 15.7359 83.8026C16.231 77.3058 21.1489 70.874 30.3543 64.6735L34.4664 61.8668C38.0834 59.2171 41.0127 55.8867 43.1776 51.9591C45.3196 48.0603 46.5757 43.8398 46.9148 39.4161C47.1156 36.817 46.6937 33.5897 45.6764 29.8261C44.2798 24.7147 42.292 22.1566 39.5851 22.0037C38.6233 21.9527 37.5702 22.3679 36.2853 23.3396C33.1603 25.7581 30.8891 28.6881 29.5274 32.0347C28.4769 34.5928 27.7792 38.0141 27.4569 42.2025C27.322 43.9458 27.5918 47.1657 28.2347 51.0527L32.0456 48.027C32.0335 47.5901 32.0478 47.1358 32.087 46.6594C32.2878 43.9923 33.0733 41.0963 34.4113 38.0562C36.1159 34.2534 37.7245 33.1036 38.7776 32.81C39.0654 32.7295 39.3464 32.6999 39.6459 32.7162C41.0183 32.7945 42.3856 33.292 42.1516 36.4019C41.9542 39.0386 40.7335 41.8313 38.5294 44.7066Z" fill="white"/>
<path d="M41.9052 99.2527C44.3734 98.3042 46.4818 96.8601 48.186 94.9495C50.3642 92.5262 51.5888 89.6619 51.8345 86.4372C52.1447 82.4781 51.0356 78.8885 48.5523 75.7649C45.8281 72.3433 42.0973 70.477 37.4587 70.2151C36.9278 70.1852 36.3629 70.1874 35.7803 70.2244L34.7875 63.8749L30.6215 66.5017L31.2605 71.0055C28.766 71.8894 26.5952 73.2844 24.7897 75.1625C22.7114 77.3505 21.5544 79.7583 21.358 82.3212C21.1572 84.9834 21.85 87.4218 23.4185 89.5541C24.2351 90.692 25.3606 91.7037 26.6494 92.5303C28.7635 93.8784 31.2011 93.7772 31.5872 93.0448C31.9776 92.3123 30.5293 91.1629 29.3939 89.629C28.7467 88.7607 28.4278 87.7184 28.4278 86.4907C28.4278 83.8857 30.2617 81.6464 32.8734 80.6554L35.3179 96.9846L35.8889 100.773C36.2612 102.573 36.6296 104.365 36.9821 106.136C37.413 108.533 37.5647 110.61 37.4307 112.31C37.2501 114.664 36.393 116.588 34.8801 118.032C33.9175 118.95 32.7928 119.53 31.5212 119.851C33.228 118.388 34.2851 116.368 34.2851 114.134C34.2851 109.675 30.0657 106.056 24.8612 106.056C23.4164 106.056 22.0642 106.356 20.8413 106.853C20.6862 106.911 20.5401 106.997 20.3871 107.065C20.0515 107.222 19.7154 107.379 19.4021 107.569C19.2948 107.638 19.1922 107.717 19.0867 107.792C16.9804 109.201 15.6002 111.344 15.4778 113.786C15.4778 113.79 15.4731 113.794 15.4731 113.798C15.4731 113.799 15.4731 113.801 15.4731 113.803C15.4675 113.918 15.4343 114.021 15.4343 114.134C15.4343 114.23 15.4632 114.316 15.4679 114.408C15.4632 117.024 16.7318 119.275 19.2767 121.1C21.6829 122.823 24.5669 123.788 27.8482 123.972C29.7127 124.075 31.5131 123.892 33.1944 123.423C34.5686 123.039 35.8984 122.456 37.1368 121.692C40.1359 119.837 41.769 117.414 41.9939 114.478C42.1658 112.239 42.0344 109.59 41.5902 106.57L40.3673 99.7635L37.2837 80.2255C40.724 80.7913 43.328 83.3808 43.328 86.4926C43.328 88.7035 42.4933 92.1919 40.936 94.0184L41.9052 99.2527Z" fill="white"/>
</g>
<path d="M89.3219 40.1905C89.89 38.7217 89.3749 36.9684 88.1628 36.2799C86.9507 35.5914 85.5038 36.2157 84.9356 37.6844L75.2312 62.6623C74.8752 63.5711 74.9358 64.636 75.3752 65.4897C75.8146 66.3434 76.5949 66.8483 77.4282 66.8483H94.3975V74.192C94.3975 75.8168 95.4808 77.1295 96.8217 77.1295C98.1626 77.1295 99.2459 75.8168 99.2459 74.192V66.8483H101.67C103.011 66.8483 104.094 65.5356 104.094 63.9108C104.094 62.286 103.011 60.9733 101.67 60.9733H99.2459V47.7545C99.2459 46.1297 98.1626 44.817 96.8217 44.817C95.4808 44.817 94.3975 46.1297 94.3975 47.7545V60.9733H81.2463L89.3219 40.1905Z" fill="white"/>
<path d="M89.3219 74.1905C89.89 72.7217 89.3749 70.9684 88.1628 70.2799C86.9507 69.5914 85.5038 70.2157 84.9356 71.6844L75.2312 96.6623C74.8752 97.5711 74.9358 98.636 75.3752 99.4897C75.8146 100.343 76.5949 100.848 77.4282 100.848H94.3975V108.192C94.3975 109.817 95.4808 111.13 96.8217 111.13C98.1626 111.13 99.2459 109.817 99.2459 108.192V100.848H101.67C103.011 100.848 104.094 99.5356 104.094 97.9108C104.094 96.286 103.011 94.9733 101.67 94.9733H99.2459V81.7545C99.2459 80.1297 98.1626 78.817 96.8217 78.817C95.4808 78.817 94.3975 80.1297 94.3975 81.7545V94.9733H81.2463L89.3219 74.1905Z" fill="white"/>
<path d="M149.174 39C148.247 39 147.314 39.0484 146.406 39.1621M146.406 39.1621C142.094 39.7018 138.336 41.7118 138.336 46.9865C138.336 54.0087 144.558 53.8321 150.315 53.8321C153.285 53.8321 156.59 54.4684 156.59 50.4093C156.59 48.5705 158.434 44.6967 156.464 43.12C153.602 40.8308 150.049 39.4977 146.406 39.1621ZM146.406 39.1621C144.375 38.975 142.315 39.0981 140.332 39.5388C134.874 40.7517 137.765 49.9946 137.765 53.5469C137.765 56.4176 138.906 59.1034 138.906 62.1039C138.906 65.4218 138.336 68.5704 138.336 71.8018C138.336 83.6076 138.906 95.1712 138.906 106.885M145.752 45.8456C145.507 46.0416 145.015 46.3157 144.439 46.5597M144.439 46.5597C143.328 47.0299 141.902 47.3881 141.315 46.8598C139.895 45.5819 142.493 45.3288 142.899 45.1484C144.22 44.5614 146.982 44.0909 148.109 45.038M144.439 46.5597C144.287 46.988 144.214 47.3693 144.208 47.7086M144.439 46.5597C144.488 46.4217 144.545 46.2788 144.611 46.1308C144.87 45.5483 146.501 45.156 148.109 45.038M148.109 45.038C148.337 45.2293 148.498 45.4785 148.567 45.7963M148.109 45.038C149.501 44.9358 150.876 45.039 151.329 45.4019C152.067 45.9922 152.469 46.5755 152.613 47.1254M148.567 45.7963C148.591 45.9095 148.604 46.0314 148.604 46.1625C148.604 47.7959 148.194 49.162 147.386 50.2271M148.567 45.7963C146.547 45.6402 144.665 46.0565 144.611 46.9865C144.597 47.2189 144.599 47.4383 144.616 47.6453M148.567 45.7963C150.073 45.9128 151.655 46.3477 152.613 47.1254M147.386 50.2271C147.327 50.3048 147.266 50.381 147.203 50.4555M147.386 50.2271C148.043 50.3297 148.749 50.3783 149.448 50.3979M147.386 50.2271C146.724 50.1237 146.111 49.9655 145.603 49.7265M147.203 50.4555C146.344 51.4678 145.096 52.1818 143.47 52.5644C143.399 52.581 143.33 52.5968 143.261 52.6118M147.203 50.4555C147.918 50.5926 148.702 50.5615 149.448 50.3979M147.203 50.4555C146.599 50.3397 146.044 50.1039 145.603 49.7265M143.261 52.6118C139.092 53.5236 138.906 51.3958 138.906 47.8105C138.906 44.2263 138.735 43.6398 141.758 42.296C143.922 41.3346 147.075 41.8523 149.46 41.8523C153.122 41.8523 151.989 43.3738 153.865 45.7188C155.333 47.5534 154.689 48.8939 153.356 49.6612M143.261 52.6118C145.99 53.2672 150.063 53.3594 151.456 52.1207C152.497 51.1953 153.095 50.3767 153.356 49.6612M143.261 52.6118C142.389 52.4022 141.654 52.1351 141.188 51.8355C137.894 49.718 141.477 48.1803 144.208 47.7086M153.356 49.6612C152.501 50.153 151.363 50.4093 150.315 50.4093C150.03 50.4093 149.74 50.4061 149.448 50.3979M153.356 49.6612C153.746 48.5884 153.379 47.7473 152.613 47.1254M149.448 50.3979C151.362 49.9783 153.023 48.6863 152.613 47.1254M145.603 49.7265C144.748 49.324 144.193 48.6925 144.208 47.7086M145.603 49.7265C145.06 49.2613 144.69 48.581 144.616 47.6453M144.208 47.7086C144.347 47.6848 144.483 47.6636 144.616 47.6453M144.616 47.6453C145.037 47.5871 145.426 47.557 145.752 47.557" stroke="white" stroke-width="3" stroke-linecap="round"/>
<path d="M189.247 76.2845C187.318 76.2845 180.746 78.63 180.266 80.7918C179.386 84.7478 182.46 85.4506 184.806 87.4359C187.934 90.0827 191.195 88.5628 194.322 87.6696C194.749 87.5475 196.36 84.8925 196.492 84.431C196.944 82.8484 197.211 80.671 197.961 79.0223C200.339 73.7907 198.555 67.1256 199.597 61.3938C200.604 55.8512 200.064 49.9525 200.064 44.2995C200.064 39.385 200.665 33.9858 200.665 29.4087V24M188.646 82.2942C188.646 81.4413 188.652 82.8605 188.646 83.0287C188.632 83.3724 188.558 83.6861 188.439 83.9766M188.439 83.9766C188.078 84.8587 187.299 85.5265 186.542 86.1671C184.423 87.9605 182.001 87.017 180.232 85.2991C176.115 81.2996 177.969 78.0874 183.537 78.0874C185.713 78.0874 193.453 77.5544 193.453 81.3928C193.453 85.2272 190.886 85.3521 188.439 83.9766ZM188.439 83.9766C187.667 83.5423 186.906 82.9583 186.242 82.2942M182.636 85.9H187.444M188.646 85.9C185.718 85.9 184.355 83.5954 183.103 81.0923C182.883 80.6509 182.752 80.2743 182.697 79.9531M182.697 79.9531C182.381 78.1049 184.572 78.0874 186.542 78.0874C186.625 78.0874 186.715 78.0902 186.811 78.0958M182.697 79.9531C181.986 80.377 181.666 81.1528 182.068 82.5613C182.441 83.8637 185.662 85.8424 186.843 86.3675C188.44 87.0772 190.622 86.3226 191.984 85.9334C194.572 85.1941 194.655 85.1054 194.655 82.2942C194.655 81.1889 193.524 80.904 192.238 80.8883M182.697 79.9531C184.363 78.9594 188.175 79.8994 189.848 79.1558C190 79.0882 190.149 79.0277 190.296 78.9744M186.811 78.0958C187.537 78.1377 188.61 78.3381 189.613 78.6974M186.811 78.0958C186.742 77.9364 186.831 77.7366 187.143 77.4864C188.314 76.5501 190.108 76.8422 191.653 76.8814M186.811 78.0958C187.002 78.5303 188.373 78.6639 189.613 78.6974M189.613 78.6974C189.846 78.7811 190.076 78.8735 190.296 78.9744M189.613 78.6974C190.44 78.7198 191.209 78.6976 191.527 78.6904M190.296 78.9744C191.259 79.4154 192.047 80.021 192.218 80.7918C192.225 80.8246 192.232 80.8568 192.238 80.8883M190.296 78.9744C190.726 78.8186 191.134 78.7239 191.527 78.6904M192.238 80.8883C192.763 83.7775 186.802 81.2281 189.247 81.0923C189.965 81.0523 191.156 80.8751 192.238 80.8883ZM191.527 78.6904C192.291 78.6253 192.999 78.7916 193.694 79.1897M191.527 78.6904C191.583 78.6892 191.625 78.6884 191.651 78.6884C192.305 78.6884 193.051 79.0176 193.694 79.1897M193.694 79.1897C194.016 79.3737 194.335 79.6073 194.655 79.8903C194.954 80.1541 194.913 79.7955 194.646 79.245M193.694 79.1897C194.055 79.2864 194.384 79.3335 194.646 79.245M194.646 79.245C194.201 78.3303 193.13 76.8855 191.951 76.8855C191.853 76.8855 191.753 76.884 191.653 76.8814M194.646 79.245C195.019 79.1188 195.256 78.7162 195.256 77.7869C195.256 76.0567 192.287 75.6272 191.653 76.8814M191.653 76.8814L191.651 76.8855" stroke="white" stroke-width="3" stroke-linecap="round"/>
<path d="M246.174 57C245.247 57 244.314 57.0484 243.406 57.1621M243.406 57.1621C239.094 57.7018 235.336 59.7118 235.336 64.9865C235.336 72.0087 241.558 71.8321 247.315 71.8321C250.285 71.8321 253.59 72.4684 253.59 68.4093C253.59 66.5705 255.434 62.6967 253.464 61.12C250.602 58.8308 247.049 57.4977 243.406 57.1621ZM243.406 57.1621C241.375 56.975 239.315 57.0981 237.332 57.5388C231.874 58.7517 234.765 67.9946 234.765 71.5469C234.765 74.4176 235.906 77.1034 235.906 80.1039C235.906 83.4218 235.336 86.5704 235.336 89.8018C235.336 101.608 235.906 113.171 235.906 124.885M242.752 63.8456C242.507 64.0416 242.015 64.3157 241.439 64.5597M241.439 64.5597C240.328 65.0299 238.902 65.3881 238.315 64.8598C236.895 63.5819 239.493 63.3288 239.899 63.1484C241.22 62.5614 243.982 62.0909 245.109 63.038M241.439 64.5597C241.287 64.988 241.214 65.3693 241.208 65.7086M241.439 64.5597C241.488 64.4217 241.545 64.2788 241.611 64.1308C241.87 63.5483 243.501 63.156 245.109 63.038M245.109 63.038C245.337 63.2293 245.498 63.4785 245.567 63.7963M245.109 63.038C246.501 62.9358 247.876 63.039 248.329 63.4019C249.067 63.9922 249.469 64.5755 249.613 65.1254M245.567 63.7963C245.591 63.9095 245.604 64.0314 245.604 64.1625C245.604 65.7959 245.194 67.162 244.386 68.2271M245.567 63.7963C243.547 63.6402 241.665 64.0565 241.611 64.9865C241.597 65.2189 241.599 65.4383 241.616 65.6453M245.567 63.7963C247.073 63.9128 248.655 64.3477 249.613 65.1254M244.386 68.2271C244.327 68.3048 244.266 68.381 244.203 68.4555M244.386 68.2271C245.043 68.3297 245.749 68.3783 246.448 68.3979M244.386 68.2271C243.724 68.1237 243.111 67.9655 242.603 67.7265M244.203 68.4555C243.344 69.4678 242.096 70.1818 240.47 70.5644C240.399 70.581 240.33 70.5968 240.261 70.6118M244.203 68.4555C244.918 68.5926 245.702 68.5615 246.448 68.3979M244.203 68.4555C243.599 68.3397 243.044 68.1039 242.603 67.7265M240.261 70.6118C236.092 71.5236 235.906 69.3958 235.906 65.8105C235.906 62.2263 235.735 61.6398 238.758 60.296C240.922 59.3346 244.075 59.8523 246.46 59.8523C250.122 59.8523 248.989 61.3738 250.865 63.7188C252.333 65.5534 251.689 66.8939 250.356 67.6612M240.261 70.6118C242.99 71.2672 247.063 71.3594 248.456 70.1207C249.497 69.1953 250.095 68.3767 250.356 67.6612M240.261 70.6118C239.389 70.4022 238.654 70.1351 238.188 69.8355C234.894 67.718 238.477 66.1803 241.208 65.7086M250.356 67.6612C249.501 68.153 248.363 68.4093 247.315 68.4093C247.03 68.4093 246.74 68.4061 246.448 68.3979M250.356 67.6612C250.746 66.5884 250.379 65.7473 249.613 65.1254M246.448 68.3979C248.362 67.9783 250.023 66.6863 249.613 65.1254M242.603 67.7265C241.748 67.324 241.193 66.6925 241.208 65.7086M242.603 67.7265C242.06 67.2613 241.69 66.581 241.616 65.6453M241.208 65.7086C241.347 65.6848 241.483 65.6636 241.616 65.6453M241.616 65.6453C242.037 65.5871 242.426 65.557 242.752 65.557" stroke="white" stroke-width="3" stroke-linecap="round"/>
<path d="M300.174 57C299.247 57 298.314 57.0484 297.406 57.1621M297.406 57.1621C293.094 57.7018 289.336 59.7118 289.336 64.9865C289.336 72.0087 295.558 71.8321 301.315 71.8321C304.285 71.8321 307.59 72.4684 307.59 68.4093C307.59 66.5705 309.434 62.6967 307.464 61.12C304.602 58.8308 301.049 57.4977 297.406 57.1621ZM297.406 57.1621C295.375 56.975 293.315 57.0981 291.332 57.5388C285.874 58.7517 288.765 67.9946 288.765 71.5469C288.765 74.4176 289.906 77.1034 289.906 80.1039C289.906 83.4218 289.336 86.5704 289.336 89.8018C289.336 101.608 289.906 113.171 289.906 124.885M296.752 63.8456C296.507 64.0416 296.015 64.3157 295.439 64.5597M295.439 64.5597C294.328 65.0299 292.902 65.3881 292.315 64.8598C290.895 63.5819 293.493 63.3288 293.899 63.1484C295.22 62.5614 297.982 62.0909 299.109 63.038M295.439 64.5597C295.287 64.988 295.214 65.3693 295.208 65.7086M295.439 64.5597C295.488 64.4217 295.545 64.2788 295.611 64.1308C295.87 63.5483 297.501 63.156 299.109 63.038M299.109 63.038C299.337 63.2293 299.498 63.4785 299.567 63.7963M299.109 63.038C300.501 62.9358 301.876 63.039 302.329 63.4019C303.067 63.9922 303.469 64.5755 303.613 65.1254M299.567 63.7963C299.591 63.9095 299.604 64.0314 299.604 64.1625C299.604 65.7959 299.194 67.162 298.386 68.2271M299.567 63.7963C297.547 63.6402 295.665 64.0565 295.611 64.9865C295.597 65.2189 295.599 65.4383 295.616 65.6453M299.567 63.7963C301.073 63.9128 302.655 64.3477 303.613 65.1254M298.386 68.2271C298.327 68.3048 298.266 68.381 298.203 68.4555M298.386 68.2271C299.043 68.3297 299.749 68.3783 300.448 68.3979M298.386 68.2271C297.724 68.1237 297.111 67.9655 296.603 67.7265M298.203 68.4555C297.344 69.4678 296.096 70.1818 294.47 70.5644C294.399 70.581 294.33 70.5968 294.261 70.6118M298.203 68.4555C298.918 68.5926 299.702 68.5615 300.448 68.3979M298.203 68.4555C297.599 68.3397 297.044 68.1039 296.603 67.7265M294.261 70.6118C290.092 71.5236 289.906 69.3958 289.906 65.8105C289.906 62.2263 289.735 61.6398 292.758 60.296C294.922 59.3346 298.075 59.8523 300.46 59.8523C304.122 59.8523 302.989 61.3738 304.865 63.7188C306.333 65.5534 305.689 66.8939 304.356 67.6612M294.261 70.6118C296.99 71.2672 301.063 71.3594 302.456 70.1207C303.497 69.1953 304.095 68.3767 304.356 67.6612M294.261 70.6118C293.389 70.4022 292.654 70.1351 292.188 69.8355C288.894 67.718 292.477 66.1803 295.208 65.7086M304.356 67.6612C303.501 68.153 302.363 68.4093 301.315 68.4093C301.03 68.4093 300.74 68.4061 300.448 68.3979M304.356 67.6612C304.746 66.5884 304.379 65.7473 303.613 65.1254M300.448 68.3979C302.362 67.9783 304.023 66.6863 303.613 65.1254M296.603 67.7265C295.748 67.324 295.193 66.6925 295.208 65.7086M296.603 67.7265C296.06 67.2613 295.69 66.581 295.616 65.6453M295.208 65.7086C295.347 65.6848 295.483 65.6636 295.616 65.6453M295.616 65.6453C296.037 65.5871 296.426 65.557 296.752 65.557" stroke="white" stroke-width="3" stroke-linecap="round"/>
</g>
<defs>
<clipPath id="clip0_2_267">
<rect width="414" height="152" fill="white"/>
</clipPath>
<clipPath id="clip1_2_267">
<rect width="119" height="102" fill="white" transform="translate(-29 22)"/>
</clipPath>
</defs>
</svg>
