<svg width="414" height="152" viewBox="0 0 414 152" fill="none" xmlns="http://www.w3.org/2000/svg">
<g clip-path="url(#clip0_1_9)">
<rect width="414" height="152" fill="#0F0F0F"/>
<path d="M11 36.9934L391 36" stroke="white"/>
<path d="M11 54.9934L391 56" stroke="white"/>
<path d="M11 72.9934L391 73" stroke="white"/>
<path d="M11 90.9934L390.5 90.9934" stroke="white"/>
<path d="M11 108.993L391 110" stroke="white"/>
<path d="M138 124L183 124" stroke="white"/>
<g clip-path="url(#clip1_1_9)">
<path d="M38.5295 44.7066C36.758 47.0246 34.7026 48.9582 32.4055 50.4717L28.6445 53.0431C22.8967 57.4217 18.7609 60.9593 16.3457 63.5562C11.9466 68.2794 9.53484 73.0775 9.17115 77.817C8.76524 83.1625 10.5444 88.2362 14.4605 92.9011C18.6127 97.8717 23.8542 100.566 30.0437 100.912C31.4618 100.993 33.0156 100.979 34.3079 100.907L33.8249 97.1748C32.9243 97.2457 31.9694 97.2571 30.9688 97.1999C26.9024 96.972 23.2712 95.5338 20.1687 92.9254C16.9266 90.217 15.474 87.232 15.736 83.8026C16.2311 77.3058 21.149 70.874 30.3544 64.6735L34.4665 61.8668C38.0835 59.2171 41.0128 55.8867 43.1776 51.9591C45.3196 48.0603 46.5757 43.8398 46.9148 39.4161C47.1156 36.817 46.6938 33.5897 45.6764 29.8261C44.2799 24.7147 42.2921 22.1566 39.5852 22.0037C38.6234 21.9527 37.5703 22.3679 36.2853 23.3396C33.1604 25.7581 30.8891 28.6881 29.5275 32.0347C28.4769 34.5928 27.7793 38.0141 27.457 42.2025C27.3221 43.9458 27.5918 47.1657 28.2347 51.0527L32.0457 48.027C32.0336 47.5901 32.0478 47.1358 32.087 46.6594C32.2878 43.9923 33.0734 41.0963 34.4113 38.0562C36.116 34.2534 37.7245 33.1036 38.7777 32.81C39.0655 32.7295 39.3465 32.6999 39.6459 32.7162C41.0184 32.7945 42.3856 33.292 42.1516 36.4019C41.9543 39.0386 40.7335 41.8313 38.5295 44.7066Z" fill="white"/>
<path d="M41.9052 99.2527C44.3734 98.3042 46.4818 96.8601 48.186 94.9495C50.3642 92.5262 51.5889 89.6619 51.8345 86.4372C52.1447 82.4781 51.0356 78.8885 48.5523 75.7649C45.8281 72.3433 42.0974 70.477 37.4587 70.2151C36.9278 70.1852 36.3629 70.1874 35.7803 70.2244L34.7875 63.8749L30.6215 66.5017L31.2606 71.0055C28.7661 71.8894 26.5952 73.2844 24.7897 75.1625C22.7114 77.3505 21.5545 79.7583 21.358 82.3212C21.1572 84.9834 21.8501 87.4218 23.4186 89.5541C24.2351 90.692 25.3606 91.7037 26.6495 92.5303C28.7635 93.8784 31.2011 93.7772 31.5872 93.0448C31.9776 92.3123 30.5293 91.1629 29.3939 89.629C28.7467 88.7607 28.4278 87.7184 28.4278 86.4907C28.4278 83.8857 30.2617 81.6464 32.8734 80.6554L35.3179 96.9846L35.8889 100.773C36.2612 102.573 36.6296 104.365 36.9821 106.136C37.413 108.533 37.5647 110.61 37.4307 112.31C37.2501 114.664 36.393 116.588 34.8801 118.032C33.9175 118.95 32.7929 119.53 31.5213 119.851C33.2281 118.388 34.2851 116.368 34.2851 114.134C34.2851 109.675 30.0657 106.056 24.8612 106.056C23.4164 106.056 22.0642 106.356 20.8413 106.853C20.6862 106.911 20.5401 106.997 20.3871 107.065C20.0515 107.222 19.7154 107.379 19.4021 107.569C19.2948 107.638 19.1922 107.717 19.0867 107.792C16.9804 109.201 15.6002 111.344 15.4779 113.786C15.4779 113.79 15.4731 113.794 15.4731 113.798C15.4731 113.799 15.4731 113.801 15.4731 113.803C15.4675 113.918 15.4343 114.021 15.4343 114.134C15.4343 114.23 15.4632 114.316 15.4679 114.408C15.4632 117.024 16.7318 119.275 19.2767 121.1C21.6829 122.823 24.5669 123.788 27.8482 123.972C29.7128 124.075 31.5131 123.892 33.1945 123.423C34.5686 123.039 35.8984 122.456 37.1368 121.692C40.1359 119.837 41.769 117.414 41.9939 114.478C42.1659 112.239 42.0344 109.59 41.5902 106.57L40.3673 99.7635L37.2837 80.2255C40.7241 80.7913 43.328 83.3808 43.328 86.4926C43.328 88.7035 42.4933 92.1919 40.9361 94.0184L41.9052 99.2527Z" fill="white"/>
</g>
<path d="M89.3219 40.1905C89.89 38.7217 89.3749 36.9684 88.1628 36.2799C86.9507 35.5914 85.5038 36.2157 84.9356 37.6844L75.2312 62.6623C74.8752 63.5711 74.9358 64.636 75.3752 65.4897C75.8146 66.3434 76.5949 66.8483 77.4282 66.8483H94.3975V74.192C94.3975 75.8168 95.4808 77.1295 96.8217 77.1295C98.1626 77.1295 99.2459 75.8168 99.2459 74.192V66.8483H101.67C103.011 66.8483 104.094 65.5356 104.094 63.9108C104.094 62.286 103.011 60.9733 101.67 60.9733H99.2459V47.7545C99.2459 46.1297 98.1626 44.817 96.8217 44.817C95.4808 44.817 94.3975 46.1297 94.3975 47.7545V60.9733H81.2463L89.3219 40.1905Z" fill="white"/>
<path d="M158.23 118.771C155.735 118.771 150.602 117.509 149.037 120.012C147.616 122.286 144.196 122.715 146.027 126.01C147.364 128.417 148.696 130.28 151.611 131.089C154.591 131.917 158.545 133.861 161.747 132.629C164.675 131.503 168.316 132.013 170.411 129.32C171.512 127.904 171.468 125.131 171.468 123.321C171.468 120.855 169.047 120.304 166.895 120.035C165.1 119.811 162.992 119.667 161.218 119.598C160.015 119.552 158.994 119.185 157.817 119.185" stroke="white" stroke-width="3" stroke-linecap="round"/>
<path d="M89.3219 74.1905C89.89 72.7217 89.3749 70.9684 88.1628 70.2799C86.9507 69.5914 85.5038 70.2157 84.9356 71.6844L75.2312 96.6623C74.8752 97.5711 74.9358 98.636 75.3752 99.4897C75.8146 100.343 76.5949 100.848 77.4282 100.848H94.3975V108.192C94.3975 109.817 95.4808 111.13 96.8217 111.13C98.1626 111.13 99.2459 109.817 99.2459 108.192V100.848H101.67C103.011 100.848 104.094 99.5356 104.094 97.9108C104.094 96.286 103.011 94.9733 101.67 94.9733H99.2459V81.7545C99.2459 80.1297 98.1626 78.817 96.8217 78.817C95.4808 78.817 94.3975 80.1297 94.3975 81.7545V94.9733H81.2463L89.3219 74.1905Z" fill="white"/>
<path d="M203.288 94.7744C199.238 94.7744 195.188 94.7744 191.138 94.7744C187.989 94.7744 188.488 95.2747 186.888 97.2743C184.576 100.165 186.37 106.338 187.788 109.174C189.96 113.518 196.395 113.674 200.588 113.674C204.579 113.674 205.087 106.459 205.087 103.324C205.087 82.2581 206.887 61.79 206.887 40.7764" stroke="white" stroke-width="3" stroke-linecap="round"/>
<path d="M245.586 84.8748C240.588 84.8748 235.742 85.7747 230.787 85.7747C227.724 85.7747 228.487 87.6974 228.487 90.2746C228.487 93.2597 228.551 93.9547 230.287 96.1244C231.7 97.8915 233.446 96.9423 234.986 98.1743C236.869 99.6805 246.486 100.484 246.486 97.4743C246.486 92.9745 246.486 88.4746 246.486 83.9748C246.486 74.6998 245.586 65.5232 245.586 56.0758C245.586 52.8422 246.851 45.7323 244.886 43.2763C242.809 40.6799 246.971 32.4693 243.786 30.8767" stroke="white" stroke-width="3" stroke-linecap="round"/>
<path d="M275.285 76.7751C271.648 76.7751 264.782 75.3366 264.485 80.3749C264.2 85.2207 265.012 86.8019 268.285 90.0746C271.266 93.0553 274.624 93.8745 278.885 93.8745C283.21 93.8745 281.585 86.1041 281.585 83.0748C281.585 73.6108 282.795 63.2219 281.385 53.8759C280.192 45.9772 279.358 39.0382 279.785 31.7767C279.997 28.1706 280.685 17.3647 280.685 20.9771" stroke="white" stroke-width="3" stroke-linecap="round"/>
<path d="M309.484 68.6754C306.184 68.6754 302.884 68.6754 299.584 68.6754C297.354 68.6754 297.374 71.6437 296.934 73.6252C296.058 77.5676 299.344 82.1749 303.634 82.1749C305.561 82.1749 314.648 85.2862 314.883 81.2749C315.161 76.5602 314.251 72.3194 313.984 67.7754C313.767 64.0973 312.184 60.6776 312.184 56.5258C312.184 50.826 312.184 45.1262 312.184 39.4264C312.184 29.9767 312.184 1.62777 312.184 11.0774" stroke="white" stroke-width="3" stroke-linecap="round"/>
<path d="M309.484 76.775C306.276 76.775 304.97 75.3781 304.084 72.2752C303.156 69.026 304.984 66.2298 304.984 70.4753C304.984 72.4314 304.073 74.8858 302.684 76.2751C301.281 77.6778 304.922 74.0829 305.834 77.275C306.575 79.8685 301.487 80.3286 301.384 78.575C301.195 75.3575 302.707 75.8751 305.434 75.8751C308.731 75.8751 304.963 77.675 303.184 77.675C300.255 77.675 299.189 74.247 302.284 74.0751C304.518 73.951 306.796 74.0751 309.034 74.0751C311.242 74.0751 310.384 77.8371 310.384 79.4749C310.384 87.9094 300.305 73.8156 299.184 73.1752C295.823 71.2545 306.78 71.3752 308.134 71.3752C310.108 71.3752 311.228 81.2749 306.784 81.2749" stroke="white" stroke-width="3" stroke-linecap="round"/>
<path d="M271.685 84.8748C274.514 88.0571 270.436 91.625 267.685 88.8747C265.398 86.5874 267.241 83.0749 269.885 83.0749C271.52 83.0749 276.951 82.232 277.985 83.5248C279.045 84.8506 280.043 90.2746 277.485 90.2746C275.862 90.2746 274.205 90.3699 272.585 90.2746C271.191 90.1926 271.717 87.4811 270.985 86.4747C269.313 84.1754 274.003 81.84 275.735 82.2249C279.798 83.1279 277.894 88.2797 274.385 88.4747C270.596 88.6851 269.186 83.1745 272.585 81.4749C276.084 79.7255 276.991 82.7269 273.935 84.4248C271.114 85.9922 268.783 82.3363 270.985 80.5749C272.615 79.2708 277.085 80.2689 277.085 82.6249C277.085 86.3433 268.98 87.0425 267.235 84.4248C263.34 78.5819 278.885 78.0341 278.885 80.8249C278.885 87.5578 270.785 92.2146 270.785 83.0749" stroke="white" stroke-width="3" stroke-linecap="round"/>
<path d="M234.786 92.9744C234.786 95.4457 232.086 95.4457 232.086 92.9744C232.086 90.3193 232.095 86.9996 234.786 85.5747C240.533 82.5323 243.393 87.333 241.086 92.5245C237.421 100.771 230.705 89.3746 237.486 89.3746C241.934 89.3746 248.877 93.4458 242.436 97.0243C234.524 101.42 236.407 88.4746 239.736 88.4746C246.745 88.4746 242.148 95.6744 237.486 95.6744C235.615 95.6744 236.379 89.4861 238.386 89.3746C239.614 89.3063 248.168 90.0539 245.086 91.1745C243.059 91.9117 239.237 93.5389 237.086 92.9244C233.368 91.8621 237.72 90.2745 239.286 90.2745" stroke="white" stroke-width="3" stroke-linecap="round"/>
<path d="M192.488 100.174C192.488 102.033 191.564 107.85 188.188 104.474C185.793 102.079 188.315 100.27 190.238 98.7743C192.309 97.1631 197.318 97.9616 198.788 96.1244C200.925 93.4522 200.588 101.923 200.588 102.874C200.588 104.808 201.511 110.208 199.688 111.174C196.968 112.614 193.612 111.898 191.138 110.524C188.906 109.284 187.675 104.627 189.388 102.424C191.428 99.8007 194.44 99.0714 197.888 99.2742C200.465 99.4258 194.288 116.726 194.288 102.424C194.288 99.5475 197.545 97.2004 200.138 96.6243C203.905 95.7872 203.425 101.246 204.887 103.074C208.11 107.103 194.565 116.867 193.338 108.274C192.653 103.477 192.996 101.974 198.788 101.974C206.39 101.974 196.228 102.114 197.888 103.774" stroke="white" stroke-width="3" stroke-linecap="round"/>
</g>
<defs>
<clipPath id="clip0_1_9">
<rect width="414" height="152" fill="white"/>
</clipPath>
<clipPath id="clip1_1_9">
<rect width="119" height="102" fill="white" transform="translate(-29 22)"/>
</clipPath>
</defs>
</svg>
